<mxfile host="app.diagrams.net" modified="2022-02-19T10:03:05.979Z" agent="5.0 (Macintosh; Intel Mac OS X 10_15_5) AppleWebKit/537.36 (KHTML, like Gecko) Chrome/98.0.4758.102 Safari/537.36" etag="QNsz0NeDxkOP1YzG3gk-" version="16.6.1" type="github" pages="11">
  <diagram id="kiVKGX1KEw0d-LBi2iAN" name="Page-1">
    <mxGraphModel dx="1923" dy="1111" grid="1" gridSize="10" guides="1" tooltips="1" connect="1" arrows="1" fold="1" page="1" pageScale="1" pageWidth="827" pageHeight="1169" math="0" shadow="0">
      <root>
        <mxCell id="0" />
        <mxCell id="1" parent="0" />
        <mxCell id="e1HkNcWrbTfsDtc-VSux-41" value="&lt;pre class=&quot;tw-data-text tw-text-large XcVN5d tw-ta&quot; id=&quot;tw-target-text&quot; dir=&quot;ltr&quot; style=&quot;line-height: 36px ; border: none ; padding: 2px 0.14em 2px 0px ; position: relative ; margin-top: -2px ; margin-bottom: -2px ; resize: none ; overflow: hidden ; text-align: left ; width: 277px ; overflow-wrap: break-word ; color: rgb(32 , 33 , 36) ; font-family: &amp;#34;google sans&amp;#34; , &amp;#34;arial&amp;#34; , sans-serif &amp;#34;important&amp;#34;&quot;&gt;&lt;span style=&quot;color: rgba(0 , 0 , 0 , 0) ; font-size: 0px&quot;&gt;%3CmxGraphModel%3E%3Croot%3E%3CmxCell%20id%3D%220%22%2F%3E%3CmxCell%20id%3D%221%22%20parent%3D%220%22%2F%3E%3CmxCell%20id%3D%222%22%20value%3D%22%26lt%3Bpre%20class%3D%26quot%3Btw-data-text%20tw-text-large%20XcVN5d%20tw-ta%26quot%3B%20id%3D%26quot%3Btw-target-text%26quot%3B%20dir%3D%26quot%3Bltr%26quot%3B%20style%3D%26quot%3Bline-height%3A%2036px%20%3B%20border%3A%20none%20%3B%20padding%3A%202px%200.14em%202px%200px%20%3B%20position%3A%20relative%20%3B%20margin-top%3A%20-2px%20%3B%20margin-bottom%3A%20-2px%20%3B%20resize%3A%20none%20%3B%20overflow%3A%20hidden%20%3B%20text-align%3A%20left%20%3B%20width%3A%20277px%20%3B%20overflow-wrap%3A%20break-word%20%3B%20color%3A%20rgb(32%20%2C%2033%20%2C%2036)%20%3B%20font-family%3A%20%26amp%3B%2334%3Bgoogle%20sans%26amp%3B%2334%3B%20%2C%20%26amp%3B%2334%3Barial%26amp%3B%2334%3B%20%2C%20sans-serif%20%26amp%3B%2334%3Bimportant%26amp%3B%2334%3B%26quot%3B%26gt%3B%26lt%3Bbr%26gt%3B%26lt%3B%2Fpre%26gt%3B%22%20style%3D%22whiteSpace%3Dwrap%3Bhtml%3D1%3B%22%20vertex%3D%221%22%20parent%3D%221%22%3E%3CmxGeometry%20x%3D%22680%22%20y%3D%2229.06%22%20width%3D%2290%22%20height%3D%2236.88%22%20as%3D%22geometry%22%2F%3E%3C%2FmxCell%3E%3CmxCell%20id%3D%223%22%20value%3D%22Table%3Ashipment%22%20style%3D%22text%3Bhtml%3D1%3Balign%3Dcenter%3BverticalAlign%3Dmiddle%3Bresizable%3D0%3Bpoints%3D%5B%5D%3Bautosize%3D1%3B%22%20vertex%3D%221%22%20parent%3D%221%22%3E%3CmxGeometry%20x%3D%22670%22%20y%3D%2230.31%22%20width%3D%22100%22%20height%3D%2220%22%20as%3D%22geometry%22%2F%3E%3C%2FmxCell%3E%3CmxCell%20id%3D%224%22%20value%3D%22field%3ASKU%22%20style%3D%22text%3Bhtml%3D1%3Balign%3Dcenter%3BverticalAlign%3Dmiddle%3Bresizable%3D0%3Bpoints%3D%5B%5D%3Bautosize%3D1%3B%22%20vertex%3D%221%22%20parent%3D%221%22%3E%3CmxGeometry%20x%3D%22685%22%20y%3D%2245.94%22%20width%3D%2270%22%20height%3D%2220%22%20as%3D%22geometry%22%2F%3E%3C%2FmxCell%3E%3C%2Froot%3E%3C%2FmxGraphModel%3E&lt;/span&gt;&lt;br&gt;&lt;/pre&gt;" style="whiteSpace=wrap;html=1;" parent="1" vertex="1">
          <mxGeometry x="80" y="26.57" width="120" height="41.87" as="geometry" />
        </mxCell>
        <mxCell id="e1HkNcWrbTfsDtc-VSux-22" value="&lt;pre class=&quot;tw-data-text tw-text-large XcVN5d tw-ta&quot; id=&quot;tw-target-text&quot; dir=&quot;ltr&quot; style=&quot;line-height: 36px ; border: none ; padding: 2px 0.14em 2px 0px ; position: relative ; margin-top: -2px ; margin-bottom: -2px ; resize: none ; overflow: hidden ; text-align: left ; width: 277px ; overflow-wrap: break-word ; color: rgb(32 , 33 , 36) ; font-family: &amp;#34;google sans&amp;#34; , &amp;#34;arial&amp;#34; , sans-serif &amp;#34;important&amp;#34;&quot;&gt;&lt;br&gt;&lt;/pre&gt;" style="whiteSpace=wrap;html=1;" parent="1" vertex="1">
          <mxGeometry x="370" y="220" width="120" height="32.5" as="geometry" />
        </mxCell>
        <mxCell id="e1HkNcWrbTfsDtc-VSux-3" value="" style="edgeStyle=orthogonalEdgeStyle;rounded=0;orthogonalLoop=1;jettySize=auto;html=1;" parent="1" source="e1HkNcWrbTfsDtc-VSux-1" target="e1HkNcWrbTfsDtc-VSux-2" edge="1">
          <mxGeometry relative="1" as="geometry">
            <Array as="points">
              <mxPoint x="160" y="211" />
              <mxPoint x="160" y="170" />
            </Array>
          </mxGeometry>
        </mxCell>
        <mxCell id="e1HkNcWrbTfsDtc-VSux-1" value="Business model" style="ellipse;whiteSpace=wrap;html=1;" parent="1" vertex="1">
          <mxGeometry x="100" y="175" width="70" height="65" as="geometry" />
        </mxCell>
        <mxCell id="e1HkNcWrbTfsDtc-VSux-5" value="" style="edgeStyle=orthogonalEdgeStyle;rounded=0;orthogonalLoop=1;jettySize=auto;html=1;" parent="1" source="e1HkNcWrbTfsDtc-VSux-2" target="e1HkNcWrbTfsDtc-VSux-4" edge="1">
          <mxGeometry relative="1" as="geometry">
            <Array as="points">
              <mxPoint x="302" y="160" />
              <mxPoint x="302" y="148" />
            </Array>
          </mxGeometry>
        </mxCell>
        <mxCell id="e1HkNcWrbTfsDtc-VSux-2" value="business process&lt;br&gt;отгрузка" style="ellipse;whiteSpace=wrap;html=1;" parent="1" vertex="1">
          <mxGeometry x="180" y="110" width="80" height="80" as="geometry" />
        </mxCell>
        <mxCell id="e1HkNcWrbTfsDtc-VSux-7" value="" style="edgeStyle=orthogonalEdgeStyle;rounded=0;orthogonalLoop=1;jettySize=auto;html=1;" parent="1" source="e1HkNcWrbTfsDtc-VSux-4" target="e1HkNcWrbTfsDtc-VSux-6" edge="1">
          <mxGeometry relative="1" as="geometry" />
        </mxCell>
        <mxCell id="e1HkNcWrbTfsDtc-VSux-24" value="" style="edgeStyle=orthogonalEdgeStyle;rounded=0;orthogonalLoop=1;jettySize=auto;html=1;" parent="1" source="e1HkNcWrbTfsDtc-VSux-4" target="e1HkNcWrbTfsDtc-VSux-22" edge="1">
          <mxGeometry relative="1" as="geometry" />
        </mxCell>
        <mxCell id="e1HkNcWrbTfsDtc-VSux-4" value="business event&lt;br&gt;приход товара" style="ellipse;whiteSpace=wrap;html=1;" parent="1" vertex="1">
          <mxGeometry x="324" y="105" width="90" height="85" as="geometry" />
        </mxCell>
        <mxCell id="e1HkNcWrbTfsDtc-VSux-11" value="" style="edgeStyle=orthogonalEdgeStyle;rounded=0;orthogonalLoop=1;jettySize=auto;html=1;" parent="1" source="e1HkNcWrbTfsDtc-VSux-6" target="e1HkNcWrbTfsDtc-VSux-10" edge="1">
          <mxGeometry relative="1" as="geometry" />
        </mxCell>
        <mxCell id="e1HkNcWrbTfsDtc-VSux-14" style="edgeStyle=orthogonalEdgeStyle;rounded=0;orthogonalLoop=1;jettySize=auto;html=1;entryX=0;entryY=0.5;entryDx=0;entryDy=0;" parent="1" source="e1HkNcWrbTfsDtc-VSux-6" target="e1HkNcWrbTfsDtc-VSux-12" edge="1">
          <mxGeometry relative="1" as="geometry" />
        </mxCell>
        <mxCell id="e1HkNcWrbTfsDtc-VSux-16" value="" style="edgeStyle=orthogonalEdgeStyle;rounded=0;orthogonalLoop=1;jettySize=auto;html=1;" parent="1" source="e1HkNcWrbTfsDtc-VSux-6" target="e1HkNcWrbTfsDtc-VSux-15" edge="1">
          <mxGeometry relative="1" as="geometry" />
        </mxCell>
        <mxCell id="e1HkNcWrbTfsDtc-VSux-18" value="" style="edgeStyle=orthogonalEdgeStyle;rounded=0;orthogonalLoop=1;jettySize=auto;html=1;" parent="1" source="e1HkNcWrbTfsDtc-VSux-6" target="e1HkNcWrbTfsDtc-VSux-17" edge="1">
          <mxGeometry relative="1" as="geometry" />
        </mxCell>
        <mxCell id="e1HkNcWrbTfsDtc-VSux-6" value="business entity&lt;br&gt;товар" style="ellipse;whiteSpace=wrap;html=1;" parent="1" vertex="1">
          <mxGeometry x="450" y="100" width="90" height="85" as="geometry" />
        </mxCell>
        <mxCell id="e1HkNcWrbTfsDtc-VSux-10" value="entity attribute&lt;br&gt;приход цена" style="ellipse;whiteSpace=wrap;html=1;" parent="1" vertex="1">
          <mxGeometry x="500" y="220" width="90" height="85" as="geometry" />
        </mxCell>
        <mxCell id="e1HkNcWrbTfsDtc-VSux-38" value="" style="edgeStyle=orthogonalEdgeStyle;rounded=0;orthogonalLoop=1;jettySize=auto;html=1;" parent="1" source="e1HkNcWrbTfsDtc-VSux-12" target="e1HkNcWrbTfsDtc-VSux-37" edge="1">
          <mxGeometry relative="1" as="geometry" />
        </mxCell>
        <mxCell id="e1HkNcWrbTfsDtc-VSux-12" value="entity attribute&lt;br&gt;описание товара&amp;nbsp;" style="ellipse;whiteSpace=wrap;html=1;" parent="1" vertex="1">
          <mxGeometry x="580" y="90" width="90" height="85" as="geometry" />
        </mxCell>
        <mxCell id="e1HkNcWrbTfsDtc-VSux-29" value="" style="edgeStyle=orthogonalEdgeStyle;rounded=0;orthogonalLoop=1;jettySize=auto;html=1;" parent="1" source="e1HkNcWrbTfsDtc-VSux-15" target="e1HkNcWrbTfsDtc-VSux-27" edge="1">
          <mxGeometry relative="1" as="geometry" />
        </mxCell>
        <mxCell id="e1HkNcWrbTfsDtc-VSux-15" value="business entity&lt;br&gt;SPU товара" style="ellipse;whiteSpace=wrap;html=1;" parent="1" vertex="1">
          <mxGeometry x="360" y="5" width="90" height="85" as="geometry" />
        </mxCell>
        <mxCell id="e1HkNcWrbTfsDtc-VSux-34" value="" style="edgeStyle=orthogonalEdgeStyle;rounded=0;orthogonalLoop=1;jettySize=auto;html=1;" parent="1" source="e1HkNcWrbTfsDtc-VSux-17" target="e1HkNcWrbTfsDtc-VSux-33" edge="1">
          <mxGeometry relative="1" as="geometry" />
        </mxCell>
        <mxCell id="e1HkNcWrbTfsDtc-VSux-17" value="business entity&lt;br&gt;SKU товара" style="ellipse;whiteSpace=wrap;html=1;" parent="1" vertex="1">
          <mxGeometry x="530" width="90" height="85" as="geometry" />
        </mxCell>
        <mxCell id="e1HkNcWrbTfsDtc-VSux-21" value="Table:dim_shipment" style="text;html=1;align=center;verticalAlign=middle;resizable=0;points=[];autosize=1;" parent="1" vertex="1">
          <mxGeometry x="370" y="220" width="120" height="20" as="geometry" />
        </mxCell>
        <mxCell id="e1HkNcWrbTfsDtc-VSux-42" value="" style="edgeStyle=orthogonalEdgeStyle;rounded=0;orthogonalLoop=1;jettySize=auto;html=1;" parent="1" source="e1HkNcWrbTfsDtc-VSux-27" target="e1HkNcWrbTfsDtc-VSux-41" edge="1">
          <mxGeometry relative="1" as="geometry" />
        </mxCell>
        <mxCell id="e1HkNcWrbTfsDtc-VSux-27" value="&lt;pre class=&quot;tw-data-text tw-text-large XcVN5d tw-ta&quot; id=&quot;tw-target-text&quot; dir=&quot;ltr&quot; style=&quot;line-height: 36px ; border: none ; padding: 2px 0.14em 2px 0px ; position: relative ; margin-top: -2px ; margin-bottom: -2px ; resize: none ; overflow: hidden ; text-align: left ; width: 277px ; overflow-wrap: break-word ; color: rgb(32 , 33 , 36) ; font-family: &amp;#34;google sans&amp;#34; , &amp;#34;arial&amp;#34; , sans-serif &amp;#34;important&amp;#34;&quot;&gt;&lt;br&gt;&lt;/pre&gt;" style="whiteSpace=wrap;html=1;" parent="1" vertex="1">
          <mxGeometry x="230" y="28.13" width="120" height="41.87" as="geometry" />
        </mxCell>
        <mxCell id="e1HkNcWrbTfsDtc-VSux-28" value="Table:dim_shipment" style="text;html=1;align=center;verticalAlign=middle;resizable=0;points=[];autosize=1;" parent="1" vertex="1">
          <mxGeometry x="235" y="31.249999999999996" width="120" height="20" as="geometry" />
        </mxCell>
        <mxCell id="e1HkNcWrbTfsDtc-VSux-30" value="field:SPU" style="text;html=1;align=center;verticalAlign=middle;resizable=0;points=[];autosize=1;" parent="1" vertex="1">
          <mxGeometry x="260" y="46.879999999999995" width="70" height="20" as="geometry" />
        </mxCell>
        <mxCell id="e1HkNcWrbTfsDtc-VSux-31" value="&lt;pre class=&quot;tw-data-text tw-text-large XcVN5d tw-ta&quot; id=&quot;tw-target-text&quot; dir=&quot;ltr&quot; style=&quot;line-height: 36px ; border: none ; padding: 2px 0.14em 2px 0px ; position: relative ; margin-top: -2px ; margin-bottom: -2px ; resize: none ; overflow: hidden ; text-align: left ; width: 277px ; overflow-wrap: break-word ; color: rgb(32 , 33 , 36) ; font-family: &amp;#34;google sans&amp;#34; , &amp;#34;arial&amp;#34; , sans-serif &amp;#34;important&amp;#34;&quot;&gt;&lt;br&gt;&lt;/pre&gt;" style="whiteSpace=wrap;html=1;" parent="1" vertex="1">
          <mxGeometry x="670" y="29.06" width="120" height="36.88" as="geometry" />
        </mxCell>
        <mxCell id="e1HkNcWrbTfsDtc-VSux-32" value="Table:dim_shipment" style="text;html=1;align=center;verticalAlign=middle;resizable=0;points=[];autosize=1;" parent="1" vertex="1">
          <mxGeometry x="670" y="28.13" width="120" height="20" as="geometry" />
        </mxCell>
        <mxCell id="e1HkNcWrbTfsDtc-VSux-33" value="field:SKU" style="text;html=1;align=center;verticalAlign=middle;resizable=0;points=[];autosize=1;" parent="1" vertex="1">
          <mxGeometry x="685" y="45.94" width="70" height="20" as="geometry" />
        </mxCell>
        <mxCell id="e1HkNcWrbTfsDtc-VSux-35" value="&lt;pre class=&quot;tw-data-text tw-text-large XcVN5d tw-ta&quot; id=&quot;tw-target-text&quot; dir=&quot;ltr&quot; style=&quot;line-height: 36px ; border: none ; padding: 2px 0.14em 2px 0px ; position: relative ; margin-top: -2px ; margin-bottom: -2px ; resize: none ; overflow: hidden ; text-align: left ; width: 277px ; overflow-wrap: break-word ; color: rgb(32 , 33 , 36) ; font-family: &amp;#34;google sans&amp;#34; , &amp;#34;arial&amp;#34; , sans-serif &amp;#34;important&amp;#34;&quot;&gt;&lt;br&gt;&lt;/pre&gt;" style="whiteSpace=wrap;html=1;" parent="1" vertex="1">
          <mxGeometry x="690" y="105" width="90" height="35.94" as="geometry" />
        </mxCell>
        <mxCell id="e1HkNcWrbTfsDtc-VSux-36" value="Table:dim_items" style="text;html=1;align=center;verticalAlign=middle;resizable=0;points=[];autosize=1;" parent="1" vertex="1">
          <mxGeometry x="680" y="105" width="100" height="20" as="geometry" />
        </mxCell>
        <mxCell id="e1HkNcWrbTfsDtc-VSux-37" value="field:descr" style="text;html=1;align=center;verticalAlign=middle;resizable=0;points=[];autosize=1;" parent="1" vertex="1">
          <mxGeometry x="695" y="120.94" width="70" height="20" as="geometry" />
        </mxCell>
        <mxCell id="e1HkNcWrbTfsDtc-VSux-58" style="edgeStyle=orthogonalEdgeStyle;rounded=0;orthogonalLoop=1;jettySize=auto;html=1;entryX=1;entryY=0;entryDx=0;entryDy=45;entryPerimeter=0;" parent="1" source="e1HkNcWrbTfsDtc-VSux-43" target="e1HkNcWrbTfsDtc-VSux-57" edge="1">
          <mxGeometry relative="1" as="geometry" />
        </mxCell>
        <mxCell id="e1HkNcWrbTfsDtc-VSux-43" value="shipment backend" style="rhombus;whiteSpace=wrap;html=1;" parent="1" vertex="1">
          <mxGeometry x="60" y="116.88" width="70" height="59.07" as="geometry" />
        </mxCell>
        <mxCell id="e1HkNcWrbTfsDtc-VSux-61" style="edgeStyle=orthogonalEdgeStyle;rounded=0;orthogonalLoop=1;jettySize=auto;html=1;entryX=0.855;entryY=0;entryDx=0;entryDy=4.35;entryPerimeter=0;" parent="1" source="e1HkNcWrbTfsDtc-VSux-46" target="e1HkNcWrbTfsDtc-VSux-57" edge="1">
          <mxGeometry relative="1" as="geometry" />
        </mxCell>
        <mxCell id="e1HkNcWrbTfsDtc-VSux-46" value="Table:shipment" style="text;html=1;align=center;verticalAlign=middle;resizable=0;points=[];autosize=1;" parent="1" vertex="1">
          <mxGeometry x="90" y="32.5" width="100" height="20" as="geometry" />
        </mxCell>
        <mxCell id="e1HkNcWrbTfsDtc-VSux-52" value="" style="edgeStyle=orthogonalEdgeStyle;rounded=0;orthogonalLoop=1;jettySize=auto;html=1;" parent="1" source="e1HkNcWrbTfsDtc-VSux-51" target="e1HkNcWrbTfsDtc-VSux-2" edge="1">
          <mxGeometry relative="1" as="geometry" />
        </mxCell>
        <mxCell id="e1HkNcWrbTfsDtc-VSux-53" style="edgeStyle=orthogonalEdgeStyle;rounded=0;orthogonalLoop=1;jettySize=auto;html=1;" parent="1" source="e1HkNcWrbTfsDtc-VSux-51" target="e1HkNcWrbTfsDtc-VSux-22" edge="1">
          <mxGeometry relative="1" as="geometry" />
        </mxCell>
        <mxCell id="e1HkNcWrbTfsDtc-VSux-66" style="edgeStyle=orthogonalEdgeStyle;rounded=0;orthogonalLoop=1;jettySize=auto;html=1;entryX=0;entryY=0;entryDx=160;entryDy=30;entryPerimeter=0;" parent="1" source="e1HkNcWrbTfsDtc-VSux-51" target="e1HkNcWrbTfsDtc-VSux-63" edge="1">
          <mxGeometry relative="1" as="geometry" />
        </mxCell>
        <mxCell id="e1HkNcWrbTfsDtc-VSux-51" value="KPI:shipment count" style="shape=hexagon;perimeter=hexagonPerimeter2;whiteSpace=wrap;html=1;fixedSize=1;" parent="1" vertex="1">
          <mxGeometry x="170" y="230" width="90" height="60" as="geometry" />
        </mxCell>
        <mxCell id="e1HkNcWrbTfsDtc-VSux-55" style="edgeStyle=orthogonalEdgeStyle;rounded=0;orthogonalLoop=1;jettySize=auto;html=1;entryX=0.5;entryY=1;entryDx=0;entryDy=0;" parent="1" source="e1HkNcWrbTfsDtc-VSux-54" target="e1HkNcWrbTfsDtc-VSux-22" edge="1">
          <mxGeometry relative="1" as="geometry">
            <Array as="points">
              <mxPoint x="400" y="290" />
              <mxPoint x="400" y="273" />
              <mxPoint x="430" y="273" />
            </Array>
          </mxGeometry>
        </mxCell>
        <mxCell id="e1HkNcWrbTfsDtc-VSux-54" value="&lt;font style=&quot;font-size: 10px&quot;&gt;&lt;strong style=&quot;margin: 0px ; padding: 0px ; border: 0px ; font-stretch: inherit ; line-height: inherit ; font-family: &amp;#34;geneva&amp;#34; , sans-serif ; color: rgb(85 , 85 , 85) ; background-color: rgb(255 , 255 , 255)&quot;&gt;KPI:arrival of goods&lt;/strong&gt;&lt;span style=&quot;color: rgb(85 , 85 , 85) ; font-family: &amp;#34;geneva&amp;#34; , sans-serif ; background-color: rgb(255 , 255 , 255)&quot;&gt;&amp;nbsp;(&lt;/span&gt;&lt;strong style=&quot;margin: 0px ; padding: 0px ; border: 0px ; font-stretch: inherit ; line-height: inherit ; font-family: &amp;#34;geneva&amp;#34; , sans-serif ; color: rgb(85 , 85 , 85) ; background-color: rgb(255 , 255 , 255)&quot;&gt;AOG&lt;/strong&gt;&lt;span style=&quot;color: rgb(85 , 85 , 85) ; font-family: &amp;#34;geneva&amp;#34; , sans-serif ; background-color: rgb(255 , 255 , 255)&quot;&gt;)&lt;br&gt;count&lt;br&gt;&lt;/span&gt;&lt;/font&gt;" style="shape=hexagon;perimeter=hexagonPerimeter2;whiteSpace=wrap;html=1;fixedSize=1;" parent="1" vertex="1">
          <mxGeometry x="290" y="280" width="90" height="70" as="geometry" />
        </mxCell>
        <mxCell id="e1HkNcWrbTfsDtc-VSux-57" value="ship_db" style="shape=cylinder3;whiteSpace=wrap;html=1;boundedLbl=1;backgroundOutline=1;size=15;" parent="1" vertex="1">
          <mxGeometry x="10" y="46.879999999999995" width="50" height="70" as="geometry" />
        </mxCell>
        <mxCell id="e1HkNcWrbTfsDtc-VSux-63" value="count(distinct(shipment_id))" style="shape=callout;whiteSpace=wrap;html=1;perimeter=calloutPerimeter;" parent="1" vertex="1">
          <mxGeometry x="10" y="290" width="160" height="60" as="geometry" />
        </mxCell>
        <mxCell id="e1HkNcWrbTfsDtc-VSux-64" value="formula" style="text;html=1;align=center;verticalAlign=middle;resizable=0;points=[];autosize=1;" parent="1" vertex="1">
          <mxGeometry x="30" y="260" width="60" height="20" as="geometry" />
        </mxCell>
      </root>
    </mxGraphModel>
  </diagram>
  <diagram id="ok3r9DvOlZrXPYD9BDpU" name="Page-2">
    <mxGraphModel dx="1905" dy="1133" grid="1" gridSize="10" guides="1" tooltips="1" connect="1" arrows="1" fold="1" page="1" pageScale="1" pageWidth="827" pageHeight="1169" math="0" shadow="0">
      <root>
        <mxCell id="vAMf2Nb8vmJWvjEuZwSR-0" />
        <mxCell id="vAMf2Nb8vmJWvjEuZwSR-1" parent="vAMf2Nb8vmJWvjEuZwSR-0" />
        <mxCell id="NV5tpFkeB59twcf340Y9-1" value="" style="edgeStyle=orthogonalEdgeStyle;rounded=0;orthogonalLoop=1;jettySize=auto;html=1;" parent="vAMf2Nb8vmJWvjEuZwSR-1" source="2k5WCUd3759Rw9v0ZLfa-5" target="NV5tpFkeB59twcf340Y9-0" edge="1">
          <mxGeometry relative="1" as="geometry" />
        </mxCell>
        <mxCell id="2k5WCUd3759Rw9v0ZLfa-5" value="odps" style="ellipse;whiteSpace=wrap;html=1;" parent="vAMf2Nb8vmJWvjEuZwSR-1" vertex="1">
          <mxGeometry x="240" y="100" width="80" height="80" as="geometry" />
        </mxCell>
        <mxCell id="NV5tpFkeB59twcf340Y9-19" style="edgeStyle=orthogonalEdgeStyle;rounded=0;orthogonalLoop=1;jettySize=auto;html=1;entryX=0.6;entryY=-0.012;entryDx=0;entryDy=0;entryPerimeter=0;" parent="vAMf2Nb8vmJWvjEuZwSR-1" source="NV5tpFkeB59twcf340Y9-0" target="2k5WCUd3759Rw9v0ZLfa-5" edge="1">
          <mxGeometry relative="1" as="geometry">
            <Array as="points">
              <mxPoint x="440" y="80" />
              <mxPoint x="288" y="80" />
            </Array>
          </mxGeometry>
        </mxCell>
        <mxCell id="NV5tpFkeB59twcf340Y9-0" value="hadoop" style="ellipse;whiteSpace=wrap;html=1;" parent="vAMf2Nb8vmJWvjEuZwSR-1" vertex="1">
          <mxGeometry x="400" y="100" width="80" height="80" as="geometry" />
        </mxCell>
        <mxCell id="NV5tpFkeB59twcf340Y9-21" value="" style="edgeStyle=orthogonalEdgeStyle;rounded=0;orthogonalLoop=1;jettySize=auto;html=1;" parent="vAMf2Nb8vmJWvjEuZwSR-1" source="NV5tpFkeB59twcf340Y9-7" target="NV5tpFkeB59twcf340Y9-0" edge="1">
          <mxGeometry relative="1" as="geometry" />
        </mxCell>
        <mxCell id="NV5tpFkeB59twcf340Y9-28" style="edgeStyle=orthogonalEdgeStyle;rounded=0;orthogonalLoop=1;jettySize=auto;html=1;entryX=0.35;entryY=1.038;entryDx=0;entryDy=0;entryPerimeter=0;" parent="vAMf2Nb8vmJWvjEuZwSR-1" source="NV5tpFkeB59twcf340Y9-7" target="2k5WCUd3759Rw9v0ZLfa-5" edge="1">
          <mxGeometry relative="1" as="geometry">
            <Array as="points">
              <mxPoint x="268" y="260" />
            </Array>
          </mxGeometry>
        </mxCell>
        <mxCell id="NV5tpFkeB59twcf340Y9-7" value="kafka" style="ellipse;whiteSpace=wrap;html=1;" parent="vAMf2Nb8vmJWvjEuZwSR-1" vertex="1">
          <mxGeometry x="400" y="220" width="80" height="80" as="geometry" />
        </mxCell>
        <mxCell id="NV5tpFkeB59twcf340Y9-27" value="" style="edgeStyle=orthogonalEdgeStyle;rounded=0;orthogonalLoop=1;jettySize=auto;html=1;" parent="vAMf2Nb8vmJWvjEuZwSR-1" source="NV5tpFkeB59twcf340Y9-23" target="NV5tpFkeB59twcf340Y9-7" edge="1">
          <mxGeometry relative="1" as="geometry" />
        </mxCell>
        <mxCell id="NV5tpFkeB59twcf340Y9-23" value="Контракт" style="rhombus;whiteSpace=wrap;html=1;" parent="vAMf2Nb8vmJWvjEuZwSR-1" vertex="1">
          <mxGeometry x="550" y="220" width="80" height="80" as="geometry" />
        </mxCell>
        <mxCell id="NV5tpFkeB59twcf340Y9-26" value="" style="edgeStyle=orthogonalEdgeStyle;rounded=0;orthogonalLoop=1;jettySize=auto;html=1;" parent="vAMf2Nb8vmJWvjEuZwSR-1" source="NV5tpFkeB59twcf340Y9-24" target="NV5tpFkeB59twcf340Y9-23" edge="1">
          <mxGeometry relative="1" as="geometry" />
        </mxCell>
        <mxCell id="NV5tpFkeB59twcf340Y9-24" value="K8S" style="shape=step;perimeter=stepPerimeter;whiteSpace=wrap;html=1;fixedSize=1;" parent="vAMf2Nb8vmJWvjEuZwSR-1" vertex="1">
          <mxGeometry x="690" y="220" width="120" height="80" as="geometry" />
        </mxCell>
        <mxCell id="NV5tpFkeB59twcf340Y9-32" value="" style="edgeStyle=orthogonalEdgeStyle;rounded=0;orthogonalLoop=1;jettySize=auto;html=1;" parent="vAMf2Nb8vmJWvjEuZwSR-1" source="NV5tpFkeB59twcf340Y9-29" target="NV5tpFkeB59twcf340Y9-31" edge="1">
          <mxGeometry relative="1" as="geometry" />
        </mxCell>
        <mxCell id="NV5tpFkeB59twcf340Y9-36" style="edgeStyle=orthogonalEdgeStyle;rounded=0;orthogonalLoop=1;jettySize=auto;html=1;" parent="vAMf2Nb8vmJWvjEuZwSR-1" source="NV5tpFkeB59twcf340Y9-29" target="NV5tpFkeB59twcf340Y9-35" edge="1">
          <mxGeometry relative="1" as="geometry" />
        </mxCell>
        <mxCell id="NV5tpFkeB59twcf340Y9-41" value="" style="edgeStyle=orthogonalEdgeStyle;rounded=0;orthogonalLoop=1;jettySize=auto;html=1;" parent="vAMf2Nb8vmJWvjEuZwSR-1" source="NV5tpFkeB59twcf340Y9-29" target="2k5WCUd3759Rw9v0ZLfa-5" edge="1">
          <mxGeometry relative="1" as="geometry" />
        </mxCell>
        <mxCell id="NV5tpFkeB59twcf340Y9-29" value="odps DW" style="ellipse;whiteSpace=wrap;html=1;" parent="vAMf2Nb8vmJWvjEuZwSR-1" vertex="1">
          <mxGeometry x="60" y="100" width="80" height="80" as="geometry" />
        </mxCell>
        <mxCell id="NV5tpFkeB59twcf340Y9-31" value="Reports" style="shape=process;whiteSpace=wrap;html=1;backgroundOutline=1;" parent="vAMf2Nb8vmJWvjEuZwSR-1" vertex="1">
          <mxGeometry x="140" y="260" width="120" height="60" as="geometry" />
        </mxCell>
        <mxCell id="NV5tpFkeB59twcf340Y9-35" value="Marts" style="shape=process;whiteSpace=wrap;html=1;backgroundOutline=1;" parent="vAMf2Nb8vmJWvjEuZwSR-1" vertex="1">
          <mxGeometry x="10" y="260" width="120" height="60" as="geometry" />
        </mxCell>
        <mxCell id="NV5tpFkeB59twcf340Y9-37" value="contract data" style="text;html=1;align=center;verticalAlign=middle;resizable=0;points=[];autosize=1;strokeColor=none;fillColor=none;" parent="vAMf2Nb8vmJWvjEuZwSR-1" vertex="1">
          <mxGeometry x="450" y="190" width="80" height="20" as="geometry" />
        </mxCell>
        <mxCell id="NV5tpFkeB59twcf340Y9-39" value="contract data" style="text;html=1;align=center;verticalAlign=middle;resizable=0;points=[];autosize=1;strokeColor=none;fillColor=none;" parent="vAMf2Nb8vmJWvjEuZwSR-1" vertex="1">
          <mxGeometry x="290" y="230" width="80" height="20" as="geometry" />
        </mxCell>
        <mxCell id="NV5tpFkeB59twcf340Y9-40" value="исторический Слепок - батч ?&amp;nbsp;" style="text;html=1;align=center;verticalAlign=middle;resizable=0;points=[];autosize=1;strokeColor=none;fillColor=none;" parent="vAMf2Nb8vmJWvjEuZwSR-1" vertex="1">
          <mxGeometry x="275" y="50" width="190" height="20" as="geometry" />
        </mxCell>
        <mxCell id="NV5tpFkeB59twcf340Y9-42" value="ods data" style="text;html=1;align=center;verticalAlign=middle;resizable=0;points=[];autosize=1;strokeColor=none;fillColor=none;" parent="vAMf2Nb8vmJWvjEuZwSR-1" vertex="1">
          <mxGeometry x="150" y="120" width="60" height="20" as="geometry" />
        </mxCell>
        <mxCell id="NV5tpFkeB59twcf340Y9-43" value="contracts data" style="text;html=1;align=center;verticalAlign=middle;resizable=0;points=[];autosize=1;strokeColor=none;fillColor=none;" parent="vAMf2Nb8vmJWvjEuZwSR-1" vertex="1">
          <mxGeometry x="140" y="140" width="90" height="20" as="geometry" />
        </mxCell>
        <mxCell id="NV5tpFkeB59twcf340Y9-45" value="&lt;div style=&quot;text-align: center&quot;&gt;&lt;font face=&quot;helvetica&quot;&gt;проблема мелких партиций ? как решать и кто ?&lt;/font&gt;&lt;/div&gt;" style="text;whiteSpace=wrap;html=1;" parent="vAMf2Nb8vmJWvjEuZwSR-1" vertex="1">
          <mxGeometry x="495" y="80" width="190" height="30" as="geometry" />
        </mxCell>
      </root>
    </mxGraphModel>
  </diagram>
  <diagram id="JAYYaGNsVgU5EBFnGVN8" name="Page-3">
    <mxGraphModel dx="1923" dy="1111" grid="1" gridSize="10" guides="1" tooltips="1" connect="1" arrows="1" fold="1" page="1" pageScale="1" pageWidth="827" pageHeight="1169" math="0" shadow="0">
      <root>
        <mxCell id="ALzyuHo5Lf797-IfnMI9-0" />
        <mxCell id="ALzyuHo5Lf797-IfnMI9-1" parent="ALzyuHo5Lf797-IfnMI9-0" />
        <mxCell id="OlRZCFxsv74cyl95jlH4-18" value="" style="edgeStyle=orthogonalEdgeStyle;rounded=0;orthogonalLoop=1;jettySize=auto;html=1;" edge="1" parent="ALzyuHo5Lf797-IfnMI9-1" source="OlRZCFxsv74cyl95jlH4-1" target="OlRZCFxsv74cyl95jlH4-17">
          <mxGeometry relative="1" as="geometry" />
        </mxCell>
        <mxCell id="OlRZCFxsv74cyl95jlH4-1" value="architecture function&amp;nbsp;" style="ellipse;whiteSpace=wrap;html=1;" vertex="1" parent="ALzyuHo5Lf797-IfnMI9-1">
          <mxGeometry x="560" y="750" width="90" height="60" as="geometry" />
        </mxCell>
        <mxCell id="OlRZCFxsv74cyl95jlH4-39" style="edgeStyle=orthogonalEdgeStyle;rounded=0;orthogonalLoop=1;jettySize=auto;html=1;entryX=0;entryY=0.5;entryDx=0;entryDy=0;" edge="1" parent="ALzyuHo5Lf797-IfnMI9-1" source="OlRZCFxsv74cyl95jlH4-2" target="OlRZCFxsv74cyl95jlH4-21">
          <mxGeometry relative="1" as="geometry">
            <Array as="points">
              <mxPoint x="228" y="510" />
            </Array>
          </mxGeometry>
        </mxCell>
        <mxCell id="OlRZCFxsv74cyl95jlH4-2" value="biz users&amp;nbsp;" style="ellipse;whiteSpace=wrap;html=1;" vertex="1" parent="ALzyuHo5Lf797-IfnMI9-1">
          <mxGeometry x="190" y="360" width="75" height="60" as="geometry" />
        </mxCell>
        <mxCell id="OlRZCFxsv74cyl95jlH4-15" value="domain arch&amp;nbsp;" style="ellipse;whiteSpace=wrap;html=1;" vertex="1" parent="ALzyuHo5Lf797-IfnMI9-1">
          <mxGeometry x="440" y="835" width="90" height="60" as="geometry" />
        </mxCell>
        <mxCell id="OlRZCFxsv74cyl95jlH4-76" value="" style="edgeStyle=orthogonalEdgeStyle;rounded=0;orthogonalLoop=1;jettySize=auto;html=1;" edge="1" parent="ALzyuHo5Lf797-IfnMI9-1" source="OlRZCFxsv74cyl95jlH4-17" target="OlRZCFxsv74cyl95jlH4-15">
          <mxGeometry relative="1" as="geometry" />
        </mxCell>
        <mxCell id="OlRZCFxsv74cyl95jlH4-77" value="" style="edgeStyle=orthogonalEdgeStyle;rounded=0;orthogonalLoop=1;jettySize=auto;html=1;" edge="1" parent="ALzyuHo5Lf797-IfnMI9-1" source="OlRZCFxsv74cyl95jlH4-17" target="OlRZCFxsv74cyl95jlH4-19">
          <mxGeometry relative="1" as="geometry" />
        </mxCell>
        <mxCell id="OlRZCFxsv74cyl95jlH4-17" value="system analysts" style="ellipse;whiteSpace=wrap;html=1;" vertex="1" parent="ALzyuHo5Lf797-IfnMI9-1">
          <mxGeometry x="560" y="835" width="90" height="60" as="geometry" />
        </mxCell>
        <mxCell id="OlRZCFxsv74cyl95jlH4-19" value="research engineers" style="ellipse;whiteSpace=wrap;html=1;" vertex="1" parent="ALzyuHo5Lf797-IfnMI9-1">
          <mxGeometry x="680" y="835" width="90" height="60" as="geometry" />
        </mxCell>
        <mxCell id="OlRZCFxsv74cyl95jlH4-64" style="edgeStyle=orthogonalEdgeStyle;rounded=0;orthogonalLoop=1;jettySize=auto;html=1;" edge="1" parent="ALzyuHo5Lf797-IfnMI9-1" source="OlRZCFxsv74cyl95jlH4-21" target="OlRZCFxsv74cyl95jlH4-55">
          <mxGeometry relative="1" as="geometry">
            <mxPoint x="150" y="620" as="targetPoint" />
            <Array as="points">
              <mxPoint x="515" y="560" />
              <mxPoint x="240" y="560" />
            </Array>
          </mxGeometry>
        </mxCell>
        <mxCell id="OlRZCFxsv74cyl95jlH4-66" style="edgeStyle=orthogonalEdgeStyle;rounded=0;orthogonalLoop=1;jettySize=auto;html=1;" edge="1" parent="ALzyuHo5Lf797-IfnMI9-1" source="OlRZCFxsv74cyl95jlH4-21" target="OlRZCFxsv74cyl95jlH4-60">
          <mxGeometry relative="1" as="geometry" />
        </mxCell>
        <mxCell id="OlRZCFxsv74cyl95jlH4-67" style="edgeStyle=orthogonalEdgeStyle;rounded=0;orthogonalLoop=1;jettySize=auto;html=1;" edge="1" parent="ALzyuHo5Lf797-IfnMI9-1" source="OlRZCFxsv74cyl95jlH4-21" target="OlRZCFxsv74cyl95jlH4-61">
          <mxGeometry relative="1" as="geometry">
            <Array as="points">
              <mxPoint x="515" y="560" />
              <mxPoint x="645" y="560" />
            </Array>
          </mxGeometry>
        </mxCell>
        <mxCell id="OlRZCFxsv74cyl95jlH4-70" style="edgeStyle=orthogonalEdgeStyle;rounded=0;orthogonalLoop=1;jettySize=auto;html=1;" edge="1" parent="ALzyuHo5Lf797-IfnMI9-1" source="OlRZCFxsv74cyl95jlH4-21" target="OlRZCFxsv74cyl95jlH4-59">
          <mxGeometry relative="1" as="geometry">
            <Array as="points">
              <mxPoint x="515" y="560" />
              <mxPoint x="400" y="560" />
            </Array>
          </mxGeometry>
        </mxCell>
        <mxCell id="OlRZCFxsv74cyl95jlH4-79" style="edgeStyle=orthogonalEdgeStyle;rounded=0;orthogonalLoop=1;jettySize=auto;html=1;" edge="1" parent="ALzyuHo5Lf797-IfnMI9-1" source="OlRZCFxsv74cyl95jlH4-21" target="OlRZCFxsv74cyl95jlH4-62">
          <mxGeometry relative="1" as="geometry">
            <Array as="points">
              <mxPoint x="515" y="560" />
              <mxPoint x="792" y="560" />
            </Array>
          </mxGeometry>
        </mxCell>
        <mxCell id="OlRZCFxsv74cyl95jlH4-80" style="edgeStyle=orthogonalEdgeStyle;rounded=0;orthogonalLoop=1;jettySize=auto;html=1;entryX=0.5;entryY=0;entryDx=0;entryDy=0;" edge="1" parent="ALzyuHo5Lf797-IfnMI9-1" source="OlRZCFxsv74cyl95jlH4-21" target="OlRZCFxsv74cyl95jlH4-63">
          <mxGeometry relative="1" as="geometry">
            <Array as="points">
              <mxPoint x="515" y="560" />
              <mxPoint x="935" y="560" />
            </Array>
          </mxGeometry>
        </mxCell>
        <mxCell id="OlRZCFxsv74cyl95jlH4-21" value="data management partners" style="ellipse;whiteSpace=wrap;html=1;" vertex="1" parent="ALzyuHo5Lf797-IfnMI9-1">
          <mxGeometry x="470" y="480" width="90" height="60" as="geometry" />
        </mxCell>
        <mxCell id="OlRZCFxsv74cyl95jlH4-40" style="edgeStyle=orthogonalEdgeStyle;rounded=0;orthogonalLoop=1;jettySize=auto;html=1;entryX=0;entryY=0;entryDx=0;entryDy=0;" edge="1" parent="ALzyuHo5Lf797-IfnMI9-1" source="OlRZCFxsv74cyl95jlH4-28" target="OlRZCFxsv74cyl95jlH4-21">
          <mxGeometry relative="1" as="geometry">
            <Array as="points">
              <mxPoint x="343" y="480" />
              <mxPoint x="483" y="480" />
            </Array>
          </mxGeometry>
        </mxCell>
        <mxCell id="OlRZCFxsv74cyl95jlH4-28" value="product managers" style="ellipse;whiteSpace=wrap;html=1;" vertex="1" parent="ALzyuHo5Lf797-IfnMI9-1">
          <mxGeometry x="305" y="360" width="75" height="60" as="geometry" />
        </mxCell>
        <mxCell id="OlRZCFxsv74cyl95jlH4-41" style="edgeStyle=orthogonalEdgeStyle;rounded=0;orthogonalLoop=1;jettySize=auto;html=1;" edge="1" parent="ALzyuHo5Lf797-IfnMI9-1" source="OlRZCFxsv74cyl95jlH4-29" target="OlRZCFxsv74cyl95jlH4-21">
          <mxGeometry relative="1" as="geometry" />
        </mxCell>
        <mxCell id="OlRZCFxsv74cyl95jlH4-29" value="DS / ML" style="ellipse;whiteSpace=wrap;html=1;" vertex="1" parent="ALzyuHo5Lf797-IfnMI9-1">
          <mxGeometry x="477.5" y="330" width="75" height="60" as="geometry" />
        </mxCell>
        <mxCell id="OlRZCFxsv74cyl95jlH4-42" style="edgeStyle=orthogonalEdgeStyle;rounded=0;orthogonalLoop=1;jettySize=auto;html=1;entryX=1;entryY=0;entryDx=0;entryDy=0;" edge="1" parent="ALzyuHo5Lf797-IfnMI9-1" source="OlRZCFxsv74cyl95jlH4-30" target="OlRZCFxsv74cyl95jlH4-21">
          <mxGeometry relative="1" as="geometry">
            <Array as="points">
              <mxPoint x="688" y="450" />
              <mxPoint x="547" y="450" />
            </Array>
          </mxGeometry>
        </mxCell>
        <mxCell id="OlRZCFxsv74cyl95jlH4-30" value="BI" style="ellipse;whiteSpace=wrap;html=1;" vertex="1" parent="ALzyuHo5Lf797-IfnMI9-1">
          <mxGeometry x="650" y="360" width="75" height="60" as="geometry" />
        </mxCell>
        <mxCell id="OlRZCFxsv74cyl95jlH4-44" style="edgeStyle=orthogonalEdgeStyle;rounded=0;orthogonalLoop=1;jettySize=auto;html=1;entryX=1;entryY=0.667;entryDx=0;entryDy=0;entryPerimeter=0;" edge="1" parent="ALzyuHo5Lf797-IfnMI9-1" source="OlRZCFxsv74cyl95jlH4-31" target="OlRZCFxsv74cyl95jlH4-21">
          <mxGeometry relative="1" as="geometry">
            <Array as="points">
              <mxPoint x="808" y="520" />
            </Array>
          </mxGeometry>
        </mxCell>
        <mxCell id="OlRZCFxsv74cyl95jlH4-31" value="BA" style="ellipse;whiteSpace=wrap;html=1;" vertex="1" parent="ALzyuHo5Lf797-IfnMI9-1">
          <mxGeometry x="770" y="360" width="75" height="60" as="geometry" />
        </mxCell>
        <mxCell id="OlRZCFxsv74cyl95jlH4-45" style="edgeStyle=orthogonalEdgeStyle;rounded=0;orthogonalLoop=1;jettySize=auto;html=1;entryX=1.006;entryY=0.267;entryDx=0;entryDy=0;entryPerimeter=0;" edge="1" parent="ALzyuHo5Lf797-IfnMI9-1" source="OlRZCFxsv74cyl95jlH4-32" target="OlRZCFxsv74cyl95jlH4-21">
          <mxGeometry relative="1" as="geometry">
            <Array as="points">
              <mxPoint x="938" y="460" />
              <mxPoint x="730" y="460" />
              <mxPoint x="730" y="496" />
            </Array>
          </mxGeometry>
        </mxCell>
        <mxCell id="OlRZCFxsv74cyl95jlH4-32" value="Prod Analysts" style="ellipse;whiteSpace=wrap;html=1;" vertex="1" parent="ALzyuHo5Lf797-IfnMI9-1">
          <mxGeometry x="900" y="360" width="75" height="60" as="geometry" />
        </mxCell>
        <mxCell id="OlRZCFxsv74cyl95jlH4-46" value="raw data" style="text;html=1;align=center;verticalAlign=middle;resizable=0;points=[];autosize=1;strokeColor=none;fillColor=none;rotation=90;" vertex="1" parent="ALzyuHo5Lf797-IfnMI9-1">
          <mxGeometry x="470" y="410" width="60" height="20" as="geometry" />
        </mxCell>
        <mxCell id="OlRZCFxsv74cyl95jlH4-47" value="data marts" style="text;html=1;align=center;verticalAlign=middle;resizable=0;points=[];autosize=1;strokeColor=none;fillColor=none;rotation=-90;" vertex="1" parent="ALzyuHo5Lf797-IfnMI9-1">
          <mxGeometry x="490" y="420" width="70" height="20" as="geometry" />
        </mxCell>
        <mxCell id="OlRZCFxsv74cyl95jlH4-49" value="self service&amp;nbsp; data&amp;nbsp;" style="text;html=1;align=center;verticalAlign=middle;resizable=0;points=[];autosize=1;strokeColor=none;fillColor=none;" vertex="1" parent="ALzyuHo5Lf797-IfnMI9-1">
          <mxGeometry x="220" y="510" width="110" height="20" as="geometry" />
        </mxCell>
        <mxCell id="OlRZCFxsv74cyl95jlH4-50" value="presentation data" style="text;html=1;align=center;verticalAlign=middle;resizable=0;points=[];autosize=1;strokeColor=none;fillColor=none;" vertex="1" parent="ALzyuHo5Lf797-IfnMI9-1">
          <mxGeometry x="340" y="460" width="110" height="20" as="geometry" />
        </mxCell>
        <mxCell id="OlRZCFxsv74cyl95jlH4-51" value="data from DWH" style="text;html=1;align=center;verticalAlign=middle;resizable=0;points=[];autosize=1;strokeColor=none;fillColor=none;" vertex="1" parent="ALzyuHo5Lf797-IfnMI9-1">
          <mxGeometry x="552.5" y="430" width="100" height="20" as="geometry" />
        </mxCell>
        <mxCell id="OlRZCFxsv74cyl95jlH4-52" value="data from DWH" style="text;html=1;align=center;verticalAlign=middle;resizable=0;points=[];autosize=1;strokeColor=none;fillColor=none;" vertex="1" parent="ALzyuHo5Lf797-IfnMI9-1">
          <mxGeometry x="570" y="470" width="100" height="20" as="geometry" />
        </mxCell>
        <mxCell id="OlRZCFxsv74cyl95jlH4-53" value="data from DWH" style="text;html=1;align=center;verticalAlign=middle;resizable=0;points=[];autosize=1;strokeColor=none;fillColor=none;" vertex="1" parent="ALzyuHo5Lf797-IfnMI9-1">
          <mxGeometry x="700" y="500" width="100" height="20" as="geometry" />
        </mxCell>
        <mxCell id="OlRZCFxsv74cyl95jlH4-54" value="business integration" style="text;html=1;align=center;verticalAlign=middle;resizable=0;points=[];autosize=1;strokeColor=none;fillColor=none;" vertex="1" parent="ALzyuHo5Lf797-IfnMI9-1">
          <mxGeometry x="230" y="490" width="120" height="20" as="geometry" />
        </mxCell>
        <mxCell id="OlRZCFxsv74cyl95jlH4-55" value="Data Engineers" style="ellipse;whiteSpace=wrap;html=1;" vertex="1" parent="ALzyuHo5Lf797-IfnMI9-1">
          <mxGeometry x="200" y="630" width="90" height="60" as="geometry" />
        </mxCell>
        <mxCell id="OlRZCFxsv74cyl95jlH4-57" value="Delivery data&amp;nbsp;" style="text;html=1;align=center;verticalAlign=middle;resizable=0;points=[];autosize=1;strokeColor=none;fillColor=none;" vertex="1" parent="ALzyuHo5Lf797-IfnMI9-1">
          <mxGeometry x="240" y="565" width="90" height="20" as="geometry" />
        </mxCell>
        <mxCell id="OlRZCFxsv74cyl95jlH4-58" value="Create Contract&amp;nbsp;" style="text;html=1;align=center;verticalAlign=middle;resizable=0;points=[];autosize=1;strokeColor=none;fillColor=none;" vertex="1" parent="ALzyuHo5Lf797-IfnMI9-1">
          <mxGeometry x="400" y="590" width="100" height="20" as="geometry" />
        </mxCell>
        <mxCell id="OlRZCFxsv74cyl95jlH4-59" value="Developers" style="ellipse;whiteSpace=wrap;html=1;" vertex="1" parent="ALzyuHo5Lf797-IfnMI9-1">
          <mxGeometry x="360" y="630" width="80" height="60" as="geometry" />
        </mxCell>
        <mxCell id="OlRZCFxsv74cyl95jlH4-60" value="DWH Team" style="ellipse;whiteSpace=wrap;html=1;" vertex="1" parent="ALzyuHo5Lf797-IfnMI9-1">
          <mxGeometry x="500" y="630" width="70" height="60" as="geometry" />
        </mxCell>
        <mxCell id="OlRZCFxsv74cyl95jlH4-61" value="DQ" style="ellipse;whiteSpace=wrap;html=1;" vertex="1" parent="ALzyuHo5Lf797-IfnMI9-1">
          <mxGeometry x="610" y="630" width="70" height="60" as="geometry" />
        </mxCell>
        <mxCell id="OlRZCFxsv74cyl95jlH4-62" value="Data Platform" style="ellipse;whiteSpace=wrap;html=1;" vertex="1" parent="ALzyuHo5Lf797-IfnMI9-1">
          <mxGeometry x="757" y="630" width="70" height="60" as="geometry" />
        </mxCell>
        <mxCell id="OlRZCFxsv74cyl95jlH4-63" value="Data products" style="ellipse;whiteSpace=wrap;html=1;" vertex="1" parent="ALzyuHo5Lf797-IfnMI9-1">
          <mxGeometry x="900" y="630" width="70" height="60" as="geometry" />
        </mxCell>
        <mxCell id="OlRZCFxsv74cyl95jlH4-71" value="DW feature" style="text;html=1;align=center;verticalAlign=middle;resizable=0;points=[];autosize=1;strokeColor=none;fillColor=none;" vertex="1" parent="ALzyuHo5Lf797-IfnMI9-1">
          <mxGeometry x="530" y="600" width="80" height="20" as="geometry" />
        </mxCell>
        <mxCell id="OlRZCFxsv74cyl95jlH4-72" value="incidents" style="text;html=1;align=center;verticalAlign=middle;resizable=0;points=[];autosize=1;strokeColor=none;fillColor=none;" vertex="1" parent="ALzyuHo5Lf797-IfnMI9-1">
          <mxGeometry x="650" y="590" width="60" height="20" as="geometry" />
        </mxCell>
        <mxCell id="OlRZCFxsv74cyl95jlH4-73" value="infra feature" style="text;html=1;align=center;verticalAlign=middle;resizable=0;points=[];autosize=1;strokeColor=none;fillColor=none;rotation=0;" vertex="1" parent="ALzyuHo5Lf797-IfnMI9-1">
          <mxGeometry x="710" y="570" width="80" height="20" as="geometry" />
        </mxCell>
        <mxCell id="OlRZCFxsv74cyl95jlH4-74" value="product feature" style="text;html=1;align=center;verticalAlign=middle;resizable=0;points=[];autosize=1;strokeColor=none;fillColor=none;" vertex="1" parent="ALzyuHo5Lf797-IfnMI9-1">
          <mxGeometry x="827" y="570" width="100" height="20" as="geometry" />
        </mxCell>
      </root>
    </mxGraphModel>
  </diagram>
  <diagram id="rklEkRMTdcCnmAXjNsx3" name="Page-4">
    <mxGraphModel dx="2138" dy="905" grid="1" gridSize="10" guides="1" tooltips="1" connect="1" arrows="1" fold="1" page="1" pageScale="1" pageWidth="827" pageHeight="1169" math="0" shadow="0">
      <root>
        <mxCell id="gROXGiI7Uoom9VFu5l1R-0" />
        <mxCell id="gROXGiI7Uoom9VFu5l1R-1" parent="gROXGiI7Uoom9VFu5l1R-0" />
        <mxCell id="gROXGiI7Uoom9VFu5l1R-4" value="" style="edgeStyle=orthogonalEdgeStyle;rounded=0;orthogonalLoop=1;jettySize=auto;html=1;" parent="gROXGiI7Uoom9VFu5l1R-1" source="gROXGiI7Uoom9VFu5l1R-2" target="gROXGiI7Uoom9VFu5l1R-3" edge="1">
          <mxGeometry relative="1" as="geometry" />
        </mxCell>
        <mxCell id="gROXGiI7Uoom9VFu5l1R-10" value="" style="edgeStyle=orthogonalEdgeStyle;rounded=0;orthogonalLoop=1;jettySize=auto;html=1;" parent="gROXGiI7Uoom9VFu5l1R-1" source="gROXGiI7Uoom9VFu5l1R-2" target="gROXGiI7Uoom9VFu5l1R-9" edge="1">
          <mxGeometry relative="1" as="geometry" />
        </mxCell>
        <mxCell id="gROXGiI7Uoom9VFu5l1R-17" value="" style="edgeStyle=orthogonalEdgeStyle;rounded=0;orthogonalLoop=1;jettySize=auto;html=1;" parent="gROXGiI7Uoom9VFu5l1R-1" source="gROXGiI7Uoom9VFu5l1R-2" target="gROXGiI7Uoom9VFu5l1R-16" edge="1">
          <mxGeometry relative="1" as="geometry" />
        </mxCell>
        <mxCell id="gROXGiI7Uoom9VFu5l1R-19" value="" style="edgeStyle=orthogonalEdgeStyle;rounded=0;orthogonalLoop=1;jettySize=auto;html=1;" parent="gROXGiI7Uoom9VFu5l1R-1" source="gROXGiI7Uoom9VFu5l1R-2" target="gROXGiI7Uoom9VFu5l1R-18" edge="1">
          <mxGeometry relative="1" as="geometry" />
        </mxCell>
        <mxCell id="gROXGiI7Uoom9VFu5l1R-2" value="DE" style="ellipse;whiteSpace=wrap;html=1;" parent="gROXGiI7Uoom9VFu5l1R-1" vertex="1">
          <mxGeometry x="130" y="100" width="60" height="60" as="geometry" />
        </mxCell>
        <mxCell id="gROXGiI7Uoom9VFu5l1R-3" value="Integration - 1 Emp" style="ellipse;whiteSpace=wrap;html=1;" parent="gROXGiI7Uoom9VFu5l1R-1" vertex="1">
          <mxGeometry x="210" y="100" width="90" height="60" as="geometry" />
        </mxCell>
        <mxCell id="gROXGiI7Uoom9VFu5l1R-9" value="Support - 1/2 Emp" style="ellipse;whiteSpace=wrap;html=1;" parent="gROXGiI7Uoom9VFu5l1R-1" vertex="1">
          <mxGeometry x="50" y="100" width="60" height="60" as="geometry" />
        </mxCell>
        <mxCell id="gROXGiI7Uoom9VFu5l1R-21" value="" style="edgeStyle=orthogonalEdgeStyle;rounded=0;orthogonalLoop=1;jettySize=auto;html=1;" parent="gROXGiI7Uoom9VFu5l1R-1" source="gROXGiI7Uoom9VFu5l1R-16" edge="1">
          <mxGeometry relative="1" as="geometry">
            <mxPoint x="280" y="400" as="targetPoint" />
            <Array as="points">
              <mxPoint x="280" y="205" />
            </Array>
          </mxGeometry>
        </mxCell>
        <mxCell id="gROXGiI7Uoom9VFu5l1R-23" value="" style="edgeStyle=orthogonalEdgeStyle;rounded=0;orthogonalLoop=1;jettySize=auto;html=1;" parent="gROXGiI7Uoom9VFu5l1R-1" source="gROXGiI7Uoom9VFu5l1R-16" edge="1">
          <mxGeometry relative="1" as="geometry">
            <mxPoint x="40" y="400" as="targetPoint" />
            <Array as="points">
              <mxPoint x="40" y="215" />
            </Array>
          </mxGeometry>
        </mxCell>
        <mxCell id="gROXGiI7Uoom9VFu5l1R-25" value="" style="edgeStyle=orthogonalEdgeStyle;rounded=0;orthogonalLoop=1;jettySize=auto;html=1;" parent="gROXGiI7Uoom9VFu5l1R-1" source="gROXGiI7Uoom9VFu5l1R-16" target="gROXGiI7Uoom9VFu5l1R-24" edge="1">
          <mxGeometry relative="1" as="geometry" />
        </mxCell>
        <mxCell id="gROXGiI7Uoom9VFu5l1R-16" value="OSS / TT / TDDL" style="ellipse;whiteSpace=wrap;html=1;" parent="gROXGiI7Uoom9VFu5l1R-1" vertex="1">
          <mxGeometry x="55" y="190" width="210" height="50" as="geometry" />
        </mxCell>
        <mxCell id="gROXGiI7Uoom9VFu5l1R-18" value="DWH Core" style="ellipse;whiteSpace=wrap;html=1;" parent="gROXGiI7Uoom9VFu5l1R-1" vertex="1">
          <mxGeometry x="130" y="20" width="60" height="60" as="geometry" />
        </mxCell>
        <mxCell id="gROXGiI7Uoom9VFu5l1R-24" value="OutSide&lt;br&gt;(ADS)" style="ellipse;whiteSpace=wrap;html=1;" parent="gROXGiI7Uoom9VFu5l1R-1" vertex="1">
          <mxGeometry x="125" y="260" width="70" height="50" as="geometry" />
        </mxCell>
        <mxCell id="gROXGiI7Uoom9VFu5l1R-26" value="Self-Service to ADS" style="text;html=1;align=center;verticalAlign=middle;resizable=0;points=[];autosize=1;" parent="gROXGiI7Uoom9VFu5l1R-1" vertex="1">
          <mxGeometry x="100" y="320" width="120" height="20" as="geometry" />
        </mxCell>
        <mxCell id="gROXGiI7Uoom9VFu5l1R-27" value="ODPS / ADB / HBASE / OSS / OTS / RDS" style="rounded=0;whiteSpace=wrap;html=1;" parent="gROXGiI7Uoom9VFu5l1R-1" vertex="1">
          <mxGeometry x="30" y="400" width="260" height="30" as="geometry" />
        </mxCell>
        <mxCell id="gROXGiI7Uoom9VFu5l1R-28" value="Batch Job" style="text;html=1;strokeColor=none;fillColor=none;align=center;verticalAlign=middle;whiteSpace=wrap;rounded=0;rotation=-90;" parent="gROXGiI7Uoom9VFu5l1R-1" vertex="1">
          <mxGeometry x="250" y="290" width="85" height="20" as="geometry" />
        </mxCell>
        <mxCell id="gROXGiI7Uoom9VFu5l1R-29" value="Stream Job" style="text;html=1;strokeColor=none;fillColor=none;align=center;verticalAlign=middle;whiteSpace=wrap;rounded=0;rotation=-90;" parent="gROXGiI7Uoom9VFu5l1R-1" vertex="1">
          <mxGeometry x="-20" y="290" width="85" height="20" as="geometry" />
        </mxCell>
        <mxCell id="gROXGiI7Uoom9VFu5l1R-31" value="" style="endArrow=none;html=1;" parent="gROXGiI7Uoom9VFu5l1R-1" edge="1">
          <mxGeometry width="50" height="50" relative="1" as="geometry">
            <mxPoint x="340" y="440" as="sourcePoint" />
            <mxPoint x="340" y="20" as="targetPoint" />
          </mxGeometry>
        </mxCell>
        <mxCell id="gROXGiI7Uoom9VFu5l1R-34" value="" style="edgeStyle=orthogonalEdgeStyle;rounded=0;orthogonalLoop=1;jettySize=auto;html=1;entryX=0;entryY=0.5;entryDx=0;entryDy=0;" parent="gROXGiI7Uoom9VFu5l1R-1" source="gROXGiI7Uoom9VFu5l1R-32" target="gROXGiI7Uoom9VFu5l1R-33" edge="1">
          <mxGeometry relative="1" as="geometry">
            <mxPoint x="550" y="170" as="targetPoint" />
          </mxGeometry>
        </mxCell>
        <mxCell id="gROXGiI7Uoom9VFu5l1R-36" value="" style="edgeStyle=orthogonalEdgeStyle;rounded=0;orthogonalLoop=1;jettySize=auto;html=1;entryX=1;entryY=0.5;entryDx=0;entryDy=0;" parent="gROXGiI7Uoom9VFu5l1R-1" source="gROXGiI7Uoom9VFu5l1R-32" target="gROXGiI7Uoom9VFu5l1R-35" edge="1">
          <mxGeometry relative="1" as="geometry">
            <mxPoint x="420" y="170" as="targetPoint" />
          </mxGeometry>
        </mxCell>
        <mxCell id="gROXGiI7Uoom9VFu5l1R-40" value="" style="edgeStyle=orthogonalEdgeStyle;rounded=0;orthogonalLoop=1;jettySize=auto;html=1;" parent="gROXGiI7Uoom9VFu5l1R-1" source="gROXGiI7Uoom9VFu5l1R-32" target="gROXGiI7Uoom9VFu5l1R-39" edge="1">
          <mxGeometry relative="1" as="geometry" />
        </mxCell>
        <mxCell id="gROXGiI7Uoom9VFu5l1R-32" value="Traffic-tracker&amp;nbsp;" style="ellipse;whiteSpace=wrap;html=1;" parent="gROXGiI7Uoom9VFu5l1R-1" vertex="1">
          <mxGeometry x="440" y="140" width="90" height="60" as="geometry" />
        </mxCell>
        <mxCell id="gROXGiI7Uoom9VFu5l1R-33" value="DE+1" style="ellipse;whiteSpace=wrap;html=1;" parent="gROXGiI7Uoom9VFu5l1R-1" vertex="1">
          <mxGeometry x="550" y="140" width="60" height="60" as="geometry" />
        </mxCell>
        <mxCell id="gROXGiI7Uoom9VFu5l1R-35" value="Analysts+1" style="ellipse;whiteSpace=wrap;html=1;" parent="gROXGiI7Uoom9VFu5l1R-1" vertex="1">
          <mxGeometry x="350" y="145" width="60" height="50" as="geometry" />
        </mxCell>
        <mxCell id="gROXGiI7Uoom9VFu5l1R-39" value="Lead" style="ellipse;whiteSpace=wrap;html=1;" parent="gROXGiI7Uoom9VFu5l1R-1" vertex="1">
          <mxGeometry x="455" y="70" width="60" height="50" as="geometry" />
        </mxCell>
        <mxCell id="gROXGiI7Uoom9VFu5l1R-41" value="" style="endArrow=none;html=1;" parent="gROXGiI7Uoom9VFu5l1R-1" edge="1">
          <mxGeometry width="50" height="50" relative="1" as="geometry">
            <mxPoint x="620" y="440" as="sourcePoint" />
            <mxPoint x="620" y="20" as="targetPoint" />
          </mxGeometry>
        </mxCell>
        <mxCell id="gROXGiI7Uoom9VFu5l1R-44" value="" style="edgeStyle=orthogonalEdgeStyle;rounded=0;orthogonalLoop=1;jettySize=auto;html=1;entryX=0;entryY=0.5;entryDx=0;entryDy=0;" parent="gROXGiI7Uoom9VFu5l1R-1" source="gROXGiI7Uoom9VFu5l1R-48" target="gROXGiI7Uoom9VFu5l1R-49" edge="1">
          <mxGeometry relative="1" as="geometry">
            <mxPoint x="820" y="170" as="targetPoint" />
          </mxGeometry>
        </mxCell>
        <mxCell id="gROXGiI7Uoom9VFu5l1R-45" value="" style="edgeStyle=orthogonalEdgeStyle;rounded=0;orthogonalLoop=1;jettySize=auto;html=1;entryX=1;entryY=0.5;entryDx=0;entryDy=0;" parent="gROXGiI7Uoom9VFu5l1R-1" source="gROXGiI7Uoom9VFu5l1R-48" target="gROXGiI7Uoom9VFu5l1R-50" edge="1">
          <mxGeometry relative="1" as="geometry">
            <mxPoint x="690" y="170" as="targetPoint" />
          </mxGeometry>
        </mxCell>
        <mxCell id="gROXGiI7Uoom9VFu5l1R-47" value="" style="edgeStyle=orthogonalEdgeStyle;rounded=0;orthogonalLoop=1;jettySize=auto;html=1;" parent="gROXGiI7Uoom9VFu5l1R-1" source="gROXGiI7Uoom9VFu5l1R-48" target="gROXGiI7Uoom9VFu5l1R-52" edge="1">
          <mxGeometry relative="1" as="geometry" />
        </mxCell>
        <mxCell id="gROXGiI7Uoom9VFu5l1R-48" value="Architects" style="ellipse;whiteSpace=wrap;html=1;" parent="gROXGiI7Uoom9VFu5l1R-1" vertex="1">
          <mxGeometry x="710" y="140" width="60" height="50" as="geometry" />
        </mxCell>
        <mxCell id="gROXGiI7Uoom9VFu5l1R-49" value="arch" style="ellipse;whiteSpace=wrap;html=1;" parent="gROXGiI7Uoom9VFu5l1R-1" vertex="1">
          <mxGeometry x="780" y="140" width="40" height="50" as="geometry" />
        </mxCell>
        <mxCell id="gROXGiI7Uoom9VFu5l1R-50" value="Analysts" style="ellipse;whiteSpace=wrap;html=1;" parent="gROXGiI7Uoom9VFu5l1R-1" vertex="1">
          <mxGeometry x="630" y="145" width="60" height="50" as="geometry" />
        </mxCell>
        <mxCell id="gROXGiI7Uoom9VFu5l1R-52" value="Infra" style="ellipse;whiteSpace=wrap;html=1;" parent="gROXGiI7Uoom9VFu5l1R-1" vertex="1">
          <mxGeometry x="710" y="70" width="60" height="50" as="geometry" />
        </mxCell>
        <mxCell id="gROXGiI7Uoom9VFu5l1R-54" value="QA Team" style="ellipse;whiteSpace=wrap;html=1;" parent="gROXGiI7Uoom9VFu5l1R-1" vertex="1">
          <mxGeometry x="40" y="470" width="80" height="70" as="geometry" />
        </mxCell>
        <mxCell id="gROXGiI7Uoom9VFu5l1R-55" value="Governance&amp;nbsp;" style="ellipse;whiteSpace=wrap;html=1;" parent="gROXGiI7Uoom9VFu5l1R-1" vertex="1">
          <mxGeometry x="160" y="470" width="80" height="70" as="geometry" />
        </mxCell>
        <mxCell id="gROXGiI7Uoom9VFu5l1R-56" value="ARCH TEAM&amp;nbsp;" style="text;html=1;align=center;verticalAlign=middle;resizable=0;points=[];autosize=1;" parent="gROXGiI7Uoom9VFu5l1R-1" vertex="1">
          <mxGeometry x="665" y="20" width="90" height="20" as="geometry" />
        </mxCell>
      </root>
    </mxGraphModel>
  </diagram>
  <diagram id="VuLwZrJ2ivSzhO-qvH-M" name="Page-6">
    <mxGraphModel dx="2138" dy="905" grid="1" gridSize="10" guides="1" tooltips="1" connect="1" arrows="1" fold="1" page="1" pageScale="1" pageWidth="827" pageHeight="1169" math="0" shadow="0">
      <root>
        <mxCell id="lXhe_vTyPe_ad6xfF7LF-0" />
        <mxCell id="lXhe_vTyPe_ad6xfF7LF-1" parent="lXhe_vTyPe_ad6xfF7LF-0" />
        <mxCell id="lXhe_vTyPe_ad6xfF7LF-16" value="" style="rounded=1;whiteSpace=wrap;html=1;" parent="lXhe_vTyPe_ad6xfF7LF-1" vertex="1">
          <mxGeometry x="60" y="45" width="280" height="135" as="geometry" />
        </mxCell>
        <mxCell id="lXhe_vTyPe_ad6xfF7LF-4" value="" style="edgeStyle=orthogonalEdgeStyle;rounded=0;orthogonalLoop=1;jettySize=auto;html=1;" parent="lXhe_vTyPe_ad6xfF7LF-1" source="lXhe_vTyPe_ad6xfF7LF-2" target="lXhe_vTyPe_ad6xfF7LF-3" edge="1">
          <mxGeometry relative="1" as="geometry" />
        </mxCell>
        <mxCell id="lXhe_vTyPe_ad6xfF7LF-2" value="хочу денег" style="text;html=1;strokeColor=none;fillColor=none;align=center;verticalAlign=middle;whiteSpace=wrap;rounded=0;" parent="lXhe_vTyPe_ad6xfF7LF-1" vertex="1">
          <mxGeometry x="160" y="60" width="50" height="30" as="geometry" />
        </mxCell>
        <mxCell id="lXhe_vTyPe_ad6xfF7LF-6" value="" style="edgeStyle=orthogonalEdgeStyle;rounded=0;orthogonalLoop=1;jettySize=auto;html=1;" parent="lXhe_vTyPe_ad6xfF7LF-1" source="lXhe_vTyPe_ad6xfF7LF-3" target="lXhe_vTyPe_ad6xfF7LF-5" edge="1">
          <mxGeometry relative="1" as="geometry" />
        </mxCell>
        <mxCell id="lXhe_vTyPe_ad6xfF7LF-11" value="" style="edgeStyle=orthogonalEdgeStyle;rounded=0;orthogonalLoop=1;jettySize=auto;html=1;" parent="lXhe_vTyPe_ad6xfF7LF-1" source="lXhe_vTyPe_ad6xfF7LF-3" target="lXhe_vTyPe_ad6xfF7LF-10" edge="1">
          <mxGeometry relative="1" as="geometry" />
        </mxCell>
        <mxCell id="lXhe_vTyPe_ad6xfF7LF-3" value="как получить" style="text;html=1;strokeColor=none;fillColor=none;align=center;verticalAlign=middle;whiteSpace=wrap;rounded=0;" parent="lXhe_vTyPe_ad6xfF7LF-1" vertex="1">
          <mxGeometry x="160" y="120" width="50" height="30" as="geometry" />
        </mxCell>
        <mxCell id="lXhe_vTyPe_ad6xfF7LF-8" value="" style="edgeStyle=orthogonalEdgeStyle;rounded=0;orthogonalLoop=1;jettySize=auto;html=1;" parent="lXhe_vTyPe_ad6xfF7LF-1" source="lXhe_vTyPe_ad6xfF7LF-5" target="lXhe_vTyPe_ad6xfF7LF-7" edge="1">
          <mxGeometry relative="1" as="geometry" />
        </mxCell>
        <mxCell id="lXhe_vTyPe_ad6xfF7LF-5" value="пойти в мтс" style="text;html=1;strokeColor=none;fillColor=none;align=center;verticalAlign=middle;whiteSpace=wrap;rounded=0;" parent="lXhe_vTyPe_ad6xfF7LF-1" vertex="1">
          <mxGeometry x="260" y="120" width="50" height="30" as="geometry" />
        </mxCell>
        <mxCell id="lXhe_vTyPe_ad6xfF7LF-9" value="" style="edgeStyle=orthogonalEdgeStyle;rounded=0;orthogonalLoop=1;jettySize=auto;html=1;" parent="lXhe_vTyPe_ad6xfF7LF-1" source="lXhe_vTyPe_ad6xfF7LF-7" target="lXhe_vTyPe_ad6xfF7LF-2" edge="1">
          <mxGeometry relative="1" as="geometry" />
        </mxCell>
        <mxCell id="lXhe_vTyPe_ad6xfF7LF-7" value="не хочу" style="text;html=1;strokeColor=none;fillColor=none;align=center;verticalAlign=middle;whiteSpace=wrap;rounded=0;" parent="lXhe_vTyPe_ad6xfF7LF-1" vertex="1">
          <mxGeometry x="260" y="60" width="50" height="30" as="geometry" />
        </mxCell>
        <mxCell id="lXhe_vTyPe_ad6xfF7LF-12" style="edgeStyle=orthogonalEdgeStyle;rounded=0;orthogonalLoop=1;jettySize=auto;html=1;entryX=0;entryY=0.25;entryDx=0;entryDy=0;" parent="lXhe_vTyPe_ad6xfF7LF-1" source="lXhe_vTyPe_ad6xfF7LF-10" target="lXhe_vTyPe_ad6xfF7LF-2" edge="1">
          <mxGeometry relative="1" as="geometry" />
        </mxCell>
        <mxCell id="lXhe_vTyPe_ad6xfF7LF-10" value="никак" style="text;html=1;strokeColor=none;fillColor=none;align=center;verticalAlign=middle;whiteSpace=wrap;rounded=0;" parent="lXhe_vTyPe_ad6xfF7LF-1" vertex="1">
          <mxGeometry x="80" y="120" width="50" height="30" as="geometry" />
        </mxCell>
        <mxCell id="lXhe_vTyPe_ad6xfF7LF-20" value="" style="edgeStyle=orthogonalEdgeStyle;rounded=0;orthogonalLoop=1;jettySize=auto;html=1;" parent="lXhe_vTyPe_ad6xfF7LF-1" source="lXhe_vTyPe_ad6xfF7LF-13" target="lXhe_vTyPe_ad6xfF7LF-19" edge="1">
          <mxGeometry relative="1" as="geometry" />
        </mxCell>
        <mxCell id="lXhe_vTyPe_ad6xfF7LF-13" value="как выбиратся&amp;nbsp;" style="text;html=1;strokeColor=none;fillColor=none;align=center;verticalAlign=middle;whiteSpace=wrap;rounded=0;" parent="lXhe_vTyPe_ad6xfF7LF-1" vertex="1">
          <mxGeometry x="120" y="230" width="40" height="20" as="geometry" />
        </mxCell>
        <mxCell id="lXhe_vTyPe_ad6xfF7LF-18" style="edgeStyle=orthogonalEdgeStyle;rounded=0;orthogonalLoop=1;jettySize=auto;html=1;entryX=0;entryY=0;entryDx=0;entryDy=0;" parent="lXhe_vTyPe_ad6xfF7LF-1" source="lXhe_vTyPe_ad6xfF7LF-17" target="lXhe_vTyPe_ad6xfF7LF-13" edge="1">
          <mxGeometry relative="1" as="geometry" />
        </mxCell>
        <mxCell id="lXhe_vTyPe_ad6xfF7LF-17" value="без вых ситуация" style="text;html=1;align=center;verticalAlign=middle;resizable=0;points=[];autosize=1;" parent="lXhe_vTyPe_ad6xfF7LF-1" vertex="1">
          <mxGeometry x="55" y="180" width="110" height="20" as="geometry" />
        </mxCell>
        <mxCell id="lXhe_vTyPe_ad6xfF7LF-22" value="" style="edgeStyle=orthogonalEdgeStyle;rounded=0;orthogonalLoop=1;jettySize=auto;html=1;" parent="lXhe_vTyPe_ad6xfF7LF-1" source="lXhe_vTyPe_ad6xfF7LF-19" target="lXhe_vTyPe_ad6xfF7LF-21" edge="1">
          <mxGeometry relative="1" as="geometry" />
        </mxCell>
        <mxCell id="lXhe_vTyPe_ad6xfF7LF-26" value="" style="edgeStyle=orthogonalEdgeStyle;rounded=0;orthogonalLoop=1;jettySize=auto;html=1;" parent="lXhe_vTyPe_ad6xfF7LF-1" source="lXhe_vTyPe_ad6xfF7LF-19" target="lXhe_vTyPe_ad6xfF7LF-25" edge="1">
          <mxGeometry relative="1" as="geometry">
            <Array as="points">
              <mxPoint x="280" y="240" />
            </Array>
          </mxGeometry>
        </mxCell>
        <mxCell id="lXhe_vTyPe_ad6xfF7LF-31" style="edgeStyle=orthogonalEdgeStyle;rounded=0;orthogonalLoop=1;jettySize=auto;html=1;" parent="lXhe_vTyPe_ad6xfF7LF-1" source="lXhe_vTyPe_ad6xfF7LF-19" edge="1">
          <mxGeometry relative="1" as="geometry">
            <mxPoint x="220" y="360" as="targetPoint" />
            <Array as="points">
              <mxPoint x="220" y="290" />
              <mxPoint x="220" y="290" />
            </Array>
          </mxGeometry>
        </mxCell>
        <mxCell id="lXhe_vTyPe_ad6xfF7LF-36" style="edgeStyle=orthogonalEdgeStyle;rounded=0;orthogonalLoop=1;jettySize=auto;html=1;" parent="lXhe_vTyPe_ad6xfF7LF-1" source="lXhe_vTyPe_ad6xfF7LF-19" edge="1">
          <mxGeometry relative="1" as="geometry">
            <mxPoint x="80" y="430" as="targetPoint" />
          </mxGeometry>
        </mxCell>
        <mxCell id="lXhe_vTyPe_ad6xfF7LF-41" style="edgeStyle=orthogonalEdgeStyle;rounded=0;orthogonalLoop=1;jettySize=auto;html=1;" parent="lXhe_vTyPe_ad6xfF7LF-1" source="lXhe_vTyPe_ad6xfF7LF-19" edge="1">
          <mxGeometry relative="1" as="geometry">
            <mxPoint x="440" y="230" as="targetPoint" />
          </mxGeometry>
        </mxCell>
        <mxCell id="lXhe_vTyPe_ad6xfF7LF-42" style="edgeStyle=orthogonalEdgeStyle;rounded=0;orthogonalLoop=1;jettySize=auto;html=1;" parent="lXhe_vTyPe_ad6xfF7LF-1" source="lXhe_vTyPe_ad6xfF7LF-19" edge="1">
          <mxGeometry relative="1" as="geometry">
            <mxPoint x="380" y="60" as="targetPoint" />
          </mxGeometry>
        </mxCell>
        <mxCell id="lXhe_vTyPe_ad6xfF7LF-19" value="нужно что то делать" style="text;html=1;strokeColor=none;fillColor=none;align=center;verticalAlign=middle;whiteSpace=wrap;rounded=0;" parent="lXhe_vTyPe_ad6xfF7LF-1" vertex="1">
          <mxGeometry x="220" y="230" width="40" height="20" as="geometry" />
        </mxCell>
        <mxCell id="lXhe_vTyPe_ad6xfF7LF-52" style="edgeStyle=orthogonalEdgeStyle;rounded=0;orthogonalLoop=1;jettySize=auto;html=1;entryX=0.542;entryY=0.164;entryDx=0;entryDy=0;entryPerimeter=0;" parent="lXhe_vTyPe_ad6xfF7LF-1" source="lXhe_vTyPe_ad6xfF7LF-21" target="lXhe_vTyPe_ad6xfF7LF-51" edge="1">
          <mxGeometry relative="1" as="geometry" />
        </mxCell>
        <mxCell id="lXhe_vTyPe_ad6xfF7LF-21" value="муравью хер приделать" style="text;html=1;strokeColor=none;fillColor=none;align=center;verticalAlign=middle;whiteSpace=wrap;rounded=0;" parent="lXhe_vTyPe_ad6xfF7LF-1" vertex="1">
          <mxGeometry x="330" y="270" width="40" height="20" as="geometry" />
        </mxCell>
        <mxCell id="lXhe_vTyPe_ad6xfF7LF-27" style="edgeStyle=orthogonalEdgeStyle;rounded=0;orthogonalLoop=1;jettySize=auto;html=1;entryX=0;entryY=0.5;entryDx=0;entryDy=0;" parent="lXhe_vTyPe_ad6xfF7LF-1" source="lXhe_vTyPe_ad6xfF7LF-25" target="lXhe_vTyPe_ad6xfF7LF-16" edge="1">
          <mxGeometry relative="1" as="geometry">
            <mxPoint x="30" y="110" as="targetPoint" />
            <Array as="points">
              <mxPoint x="260" y="280" />
              <mxPoint x="40" y="280" />
              <mxPoint x="40" y="113" />
            </Array>
          </mxGeometry>
        </mxCell>
        <mxCell id="lXhe_vTyPe_ad6xfF7LF-56" style="edgeStyle=orthogonalEdgeStyle;rounded=0;orthogonalLoop=1;jettySize=auto;html=1;entryX=-0.036;entryY=0.753;entryDx=0;entryDy=0;entryPerimeter=0;" parent="lXhe_vTyPe_ad6xfF7LF-1" source="lXhe_vTyPe_ad6xfF7LF-25" target="lXhe_vTyPe_ad6xfF7LF-51" edge="1">
          <mxGeometry relative="1" as="geometry">
            <mxPoint x="450" y="380" as="targetPoint" />
            <Array as="points">
              <mxPoint x="260" y="340" />
              <mxPoint x="450" y="340" />
              <mxPoint x="450" y="368" />
            </Array>
          </mxGeometry>
        </mxCell>
        <mxCell id="lXhe_vTyPe_ad6xfF7LF-25" value="пойти учится" style="text;html=1;strokeColor=none;fillColor=none;align=center;verticalAlign=middle;whiteSpace=wrap;rounded=0;" parent="lXhe_vTyPe_ad6xfF7LF-1" vertex="1">
          <mxGeometry x="240" y="290" width="40" height="20" as="geometry" />
        </mxCell>
        <mxCell id="lXhe_vTyPe_ad6xfF7LF-57" style="edgeStyle=orthogonalEdgeStyle;rounded=0;orthogonalLoop=1;jettySize=auto;html=1;entryX=0;entryY=0;entryDx=0;entryDy=0;" parent="lXhe_vTyPe_ad6xfF7LF-1" source="lXhe_vTyPe_ad6xfF7LF-32" target="lXhe_vTyPe_ad6xfF7LF-48" edge="1">
          <mxGeometry relative="1" as="geometry">
            <mxPoint x="410" y="110" as="targetPoint" />
            <Array as="points">
              <mxPoint x="220" y="330" />
              <mxPoint x="510" y="330" />
              <mxPoint x="510" y="110" />
            </Array>
          </mxGeometry>
        </mxCell>
        <mxCell id="lXhe_vTyPe_ad6xfF7LF-32" value="пойти работать" style="text;html=1;align=center;verticalAlign=middle;resizable=0;points=[];autosize=1;" parent="lXhe_vTyPe_ad6xfF7LF-1" vertex="1">
          <mxGeometry x="170" y="350" width="100" height="20" as="geometry" />
        </mxCell>
        <mxCell id="lXhe_vTyPe_ad6xfF7LF-50" style="edgeStyle=orthogonalEdgeStyle;rounded=0;orthogonalLoop=1;jettySize=auto;html=1;entryX=0.5;entryY=1;entryDx=0;entryDy=0;" parent="lXhe_vTyPe_ad6xfF7LF-1" source="lXhe_vTyPe_ad6xfF7LF-39" target="lXhe_vTyPe_ad6xfF7LF-48" edge="1">
          <mxGeometry relative="1" as="geometry" />
        </mxCell>
        <mxCell id="lXhe_vTyPe_ad6xfF7LF-55" style="edgeStyle=orthogonalEdgeStyle;rounded=0;orthogonalLoop=1;jettySize=auto;html=1;entryX=0.142;entryY=0.353;entryDx=0;entryDy=0;entryPerimeter=0;" parent="lXhe_vTyPe_ad6xfF7LF-1" source="lXhe_vTyPe_ad6xfF7LF-39" target="lXhe_vTyPe_ad6xfF7LF-51" edge="1">
          <mxGeometry relative="1" as="geometry" />
        </mxCell>
        <mxCell id="lXhe_vTyPe_ad6xfF7LF-39" value="найти" style="text;html=1;strokeColor=none;fillColor=none;align=center;verticalAlign=middle;whiteSpace=wrap;rounded=0;" parent="lXhe_vTyPe_ad6xfF7LF-1" vertex="1">
          <mxGeometry x="440" y="220" width="40" height="20" as="geometry" />
        </mxCell>
        <mxCell id="lXhe_vTyPe_ad6xfF7LF-53" style="edgeStyle=orthogonalEdgeStyle;rounded=0;orthogonalLoop=1;jettySize=auto;html=1;" parent="lXhe_vTyPe_ad6xfF7LF-1" source="lXhe_vTyPe_ad6xfF7LF-40" target="lXhe_vTyPe_ad6xfF7LF-51" edge="1">
          <mxGeometry relative="1" as="geometry" />
        </mxCell>
        <mxCell id="lXhe_vTyPe_ad6xfF7LF-40" value="выйиграть в лотерею&amp;nbsp;" style="text;html=1;align=center;verticalAlign=middle;resizable=0;points=[];autosize=1;" parent="lXhe_vTyPe_ad6xfF7LF-1" vertex="1">
          <mxGeometry x="10" y="430" width="140" height="20" as="geometry" />
        </mxCell>
        <mxCell id="lXhe_vTyPe_ad6xfF7LF-45" value="" style="edgeStyle=orthogonalEdgeStyle;rounded=0;orthogonalLoop=1;jettySize=auto;html=1;" parent="lXhe_vTyPe_ad6xfF7LF-1" source="lXhe_vTyPe_ad6xfF7LF-43" target="lXhe_vTyPe_ad6xfF7LF-44" edge="1">
          <mxGeometry relative="1" as="geometry" />
        </mxCell>
        <mxCell id="lXhe_vTyPe_ad6xfF7LF-54" style="edgeStyle=orthogonalEdgeStyle;rounded=0;orthogonalLoop=1;jettySize=auto;html=1;entryX=0;entryY=0.35;entryDx=0;entryDy=0;entryPerimeter=0;" parent="lXhe_vTyPe_ad6xfF7LF-1" source="lXhe_vTyPe_ad6xfF7LF-43" target="lXhe_vTyPe_ad6xfF7LF-51" edge="1">
          <mxGeometry relative="1" as="geometry" />
        </mxCell>
        <mxCell id="lXhe_vTyPe_ad6xfF7LF-43" value="перестать хотеть денег" style="text;html=1;align=center;verticalAlign=middle;resizable=0;points=[];autosize=1;" parent="lXhe_vTyPe_ad6xfF7LF-1" vertex="1">
          <mxGeometry x="339" y="40" width="150" height="20" as="geometry" />
        </mxCell>
        <mxCell id="lXhe_vTyPe_ad6xfF7LF-49" value="" style="edgeStyle=orthogonalEdgeStyle;rounded=0;orthogonalLoop=1;jettySize=auto;html=1;" parent="lXhe_vTyPe_ad6xfF7LF-1" source="lXhe_vTyPe_ad6xfF7LF-44" target="lXhe_vTyPe_ad6xfF7LF-48" edge="1">
          <mxGeometry relative="1" as="geometry" />
        </mxCell>
        <mxCell id="lXhe_vTyPe_ad6xfF7LF-44" value="забить на нужду так как перестал их хотеть&amp;nbsp;" style="text;html=1;align=center;verticalAlign=middle;resizable=0;points=[];autosize=1;" parent="lXhe_vTyPe_ad6xfF7LF-1" vertex="1">
          <mxGeometry x="530" y="20" width="270" height="20" as="geometry" />
        </mxCell>
        <mxCell id="lXhe_vTyPe_ad6xfF7LF-48" value="Finish" style="rhombus;whiteSpace=wrap;html=1;" parent="lXhe_vTyPe_ad6xfF7LF-1" vertex="1">
          <mxGeometry x="604" y="90" width="80" height="80" as="geometry" />
        </mxCell>
        <mxCell id="lXhe_vTyPe_ad6xfF7LF-51" value="щастье" style="shape=tape;whiteSpace=wrap;html=1;" parent="lXhe_vTyPe_ad6xfF7LF-1" vertex="1">
          <mxGeometry x="600" y="300" width="90" height="90" as="geometry" />
        </mxCell>
        <mxCell id="lXhe_vTyPe_ad6xfF7LF-58" value="1) найти" style="text;html=1;align=center;verticalAlign=middle;resizable=0;points=[];autosize=1;" parent="lXhe_vTyPe_ad6xfF7LF-1" vertex="1">
          <mxGeometry x="690" y="120" width="60" height="20" as="geometry" />
        </mxCell>
        <mxCell id="lXhe_vTyPe_ad6xfF7LF-59" value="2)выйграть" style="text;html=1;align=center;verticalAlign=middle;resizable=0;points=[];autosize=1;" parent="lXhe_vTyPe_ad6xfF7LF-1" vertex="1">
          <mxGeometry x="690" y="150" width="80" height="20" as="geometry" />
        </mxCell>
        <mxCell id="lXhe_vTyPe_ad6xfF7LF-60" value="3)заработать&lt;br&gt;- на работе офисной&lt;br&gt;- на улице&amp;nbsp;&lt;br&gt;- в публ доме&lt;br&gt;- на дому" style="text;html=1;align=center;verticalAlign=middle;resizable=0;points=[];autosize=1;" parent="lXhe_vTyPe_ad6xfF7LF-1" vertex="1">
          <mxGeometry x="670" y="180" width="130" height="70" as="geometry" />
        </mxCell>
        <mxCell id="lXhe_vTyPe_ad6xfF7LF-61" value="4) получать пособие" style="text;html=1;align=center;verticalAlign=middle;resizable=0;points=[];autosize=1;" parent="lXhe_vTyPe_ad6xfF7LF-1" vertex="1">
          <mxGeometry x="665" y="260" width="130" height="20" as="geometry" />
        </mxCell>
      </root>
    </mxGraphModel>
  </diagram>
  <diagram id="oxLM-C92QcLgFUZVQOS6" name="Page-8">
    <mxGraphModel dx="2138" dy="905" grid="1" gridSize="10" guides="1" tooltips="1" connect="1" arrows="1" fold="1" page="1" pageScale="1" pageWidth="827" pageHeight="1169" math="0" shadow="0">
      <root>
        <mxCell id="Kb1PFaq4aZm0a-GrtZAy-0" />
        <mxCell id="Kb1PFaq4aZm0a-GrtZAy-1" parent="Kb1PFaq4aZm0a-GrtZAy-0" />
        <mxCell id="Kb1PFaq4aZm0a-GrtZAy-19" value="" style="rounded=0;whiteSpace=wrap;html=1;" parent="Kb1PFaq4aZm0a-GrtZAy-1" vertex="1">
          <mxGeometry x="504" y="250" width="126" height="70" as="geometry" />
        </mxCell>
        <mxCell id="Kb1PFaq4aZm0a-GrtZAy-10" value="" style="rounded=1;whiteSpace=wrap;html=1;" parent="Kb1PFaq4aZm0a-GrtZAy-1" vertex="1">
          <mxGeometry x="10" y="190" width="130" height="130" as="geometry" />
        </mxCell>
        <mxCell id="Kb1PFaq4aZm0a-GrtZAy-55" style="edgeStyle=orthogonalEdgeStyle;rounded=0;orthogonalLoop=1;jettySize=auto;html=1;entryX=0.5;entryY=1;entryDx=0;entryDy=0;" parent="Kb1PFaq4aZm0a-GrtZAy-1" source="Kb1PFaq4aZm0a-GrtZAy-2" target="Kb1PFaq4aZm0a-GrtZAy-23" edge="1">
          <mxGeometry relative="1" as="geometry" />
        </mxCell>
        <mxCell id="Kb1PFaq4aZm0a-GrtZAy-2" value="Lake bronze" style="rounded=0;whiteSpace=wrap;html=1;" parent="Kb1PFaq4aZm0a-GrtZAy-1" vertex="1">
          <mxGeometry x="304.68" y="217.5" width="96.88" height="35" as="geometry" />
        </mxCell>
        <mxCell id="Kb1PFaq4aZm0a-GrtZAy-4" style="edgeStyle=orthogonalEdgeStyle;rounded=0;orthogonalLoop=1;jettySize=auto;html=1;entryX=0;entryY=0.25;entryDx=0;entryDy=0;" parent="Kb1PFaq4aZm0a-GrtZAy-1" source="Kb1PFaq4aZm0a-GrtZAy-3" target="Kb1PFaq4aZm0a-GrtZAy-2" edge="1">
          <mxGeometry relative="1" as="geometry" />
        </mxCell>
        <mxCell id="Kb1PFaq4aZm0a-GrtZAy-6" style="edgeStyle=orthogonalEdgeStyle;rounded=0;orthogonalLoop=1;jettySize=auto;html=1;" parent="Kb1PFaq4aZm0a-GrtZAy-1" source="Kb1PFaq4aZm0a-GrtZAy-3" target="Kb1PFaq4aZm0a-GrtZAy-5" edge="1">
          <mxGeometry relative="1" as="geometry" />
        </mxCell>
        <mxCell id="Kb1PFaq4aZm0a-GrtZAy-3" value="tt logs" style="text;html=1;strokeColor=none;fillColor=none;align=center;verticalAlign=middle;whiteSpace=wrap;rounded=0;" parent="Kb1PFaq4aZm0a-GrtZAy-1" vertex="1">
          <mxGeometry x="45" y="210" width="40" height="20" as="geometry" />
        </mxCell>
        <mxCell id="Kb1PFaq4aZm0a-GrtZAy-7" style="edgeStyle=orthogonalEdgeStyle;rounded=0;orthogonalLoop=1;jettySize=auto;html=1;entryX=0;entryY=0.75;entryDx=0;entryDy=0;" parent="Kb1PFaq4aZm0a-GrtZAy-1" source="Kb1PFaq4aZm0a-GrtZAy-5" target="Kb1PFaq4aZm0a-GrtZAy-2" edge="1">
          <mxGeometry relative="1" as="geometry" />
        </mxCell>
        <mxCell id="Kb1PFaq4aZm0a-GrtZAy-5" value="flink" style="text;html=1;align=center;verticalAlign=middle;resizable=0;points=[];autosize=1;" parent="Kb1PFaq4aZm0a-GrtZAy-1" vertex="1">
          <mxGeometry x="45" y="260" width="40" height="20" as="geometry" />
        </mxCell>
        <mxCell id="Kb1PFaq4aZm0a-GrtZAy-8" value="backend dblog" style="text;html=1;align=center;verticalAlign=middle;resizable=0;points=[];autosize=1;" parent="Kb1PFaq4aZm0a-GrtZAy-1" vertex="1">
          <mxGeometry x="20" y="290" width="90" height="20" as="geometry" />
        </mxCell>
        <mxCell id="Kb1PFaq4aZm0a-GrtZAy-11" value="Ali infra" style="text;html=1;align=center;verticalAlign=middle;resizable=0;points=[];autosize=1;" parent="Kb1PFaq4aZm0a-GrtZAy-1" vertex="1">
          <mxGeometry x="25" y="320" width="60" height="20" as="geometry" />
        </mxCell>
        <mxCell id="Kb1PFaq4aZm0a-GrtZAy-12" value="mail.ru db/Hadoop" style="text;html=1;align=center;verticalAlign=middle;resizable=0;points=[];autosize=1;" parent="Kb1PFaq4aZm0a-GrtZAy-1" vertex="1">
          <mxGeometry x="510" y="260" width="110" height="20" as="geometry" />
        </mxCell>
        <mxCell id="Kb1PFaq4aZm0a-GrtZAy-14" value="kafka/logs" style="text;html=1;align=center;verticalAlign=middle;resizable=0;points=[];autosize=1;" parent="Kb1PFaq4aZm0a-GrtZAy-1" vertex="1">
          <mxGeometry x="509" y="280" width="70" height="20" as="geometry" />
        </mxCell>
        <mxCell id="Kb1PFaq4aZm0a-GrtZAy-20" value="Mail.ru infra" style="text;html=1;align=center;verticalAlign=middle;resizable=0;points=[];autosize=1;" parent="Kb1PFaq4aZm0a-GrtZAy-1" vertex="1">
          <mxGeometry x="525" y="320" width="80" height="20" as="geometry" />
        </mxCell>
        <mxCell id="Kb1PFaq4aZm0a-GrtZAy-51" style="edgeStyle=orthogonalEdgeStyle;rounded=0;orthogonalLoop=1;jettySize=auto;html=1;entryX=0.5;entryY=1;entryDx=0;entryDy=0;" parent="Kb1PFaq4aZm0a-GrtZAy-1" source="Kb1PFaq4aZm0a-GrtZAy-21" target="Kb1PFaq4aZm0a-GrtZAy-2" edge="1">
          <mxGeometry relative="1" as="geometry">
            <Array as="points">
              <mxPoint x="350" y="270" />
              <mxPoint x="353" y="270" />
            </Array>
          </mxGeometry>
        </mxCell>
        <mxCell id="Kb1PFaq4aZm0a-GrtZAy-21" value="VK/OK/ETC" style="text;html=1;strokeColor=none;fillColor=none;align=center;verticalAlign=middle;whiteSpace=wrap;rounded=0;" parent="Kb1PFaq4aZm0a-GrtZAy-1" vertex="1">
          <mxGeometry x="340" y="290" width="40" height="20" as="geometry" />
        </mxCell>
        <mxCell id="Kb1PFaq4aZm0a-GrtZAy-28" style="edgeStyle=orthogonalEdgeStyle;rounded=0;orthogonalLoop=1;jettySize=auto;html=1;entryX=0.567;entryY=0.95;entryDx=0;entryDy=0;entryPerimeter=0;" parent="Kb1PFaq4aZm0a-GrtZAy-1" source="Kb1PFaq4aZm0a-GrtZAy-23" target="Kb1PFaq4aZm0a-GrtZAy-25" edge="1">
          <mxGeometry relative="1" as="geometry">
            <Array as="points">
              <mxPoint x="355" y="170" />
              <mxPoint x="287" y="170" />
            </Array>
          </mxGeometry>
        </mxCell>
        <mxCell id="Kb1PFaq4aZm0a-GrtZAy-30" style="edgeStyle=orthogonalEdgeStyle;rounded=0;orthogonalLoop=1;jettySize=auto;html=1;" parent="Kb1PFaq4aZm0a-GrtZAy-1" source="Kb1PFaq4aZm0a-GrtZAy-23" target="Kb1PFaq4aZm0a-GrtZAy-26" edge="1">
          <mxGeometry relative="1" as="geometry">
            <Array as="points">
              <mxPoint x="355" y="170" />
              <mxPoint x="415" y="170" />
            </Array>
          </mxGeometry>
        </mxCell>
        <mxCell id="Kb1PFaq4aZm0a-GrtZAy-32" style="edgeStyle=orthogonalEdgeStyle;rounded=0;orthogonalLoop=1;jettySize=auto;html=1;entryX=-0.014;entryY=0.35;entryDx=0;entryDy=0;entryPerimeter=0;" parent="Kb1PFaq4aZm0a-GrtZAy-1" source="Kb1PFaq4aZm0a-GrtZAy-23" target="Kb1PFaq4aZm0a-GrtZAy-27" edge="1">
          <mxGeometry relative="1" as="geometry">
            <Array as="points">
              <mxPoint x="447" y="180" />
              <mxPoint x="447" y="207" />
            </Array>
          </mxGeometry>
        </mxCell>
        <mxCell id="Kb1PFaq4aZm0a-GrtZAy-46" value="" style="edgeStyle=orthogonalEdgeStyle;rounded=0;orthogonalLoop=1;jettySize=auto;html=1;" parent="Kb1PFaq4aZm0a-GrtZAy-1" source="Kb1PFaq4aZm0a-GrtZAy-23" target="Kb1PFaq4aZm0a-GrtZAy-37" edge="1">
          <mxGeometry relative="1" as="geometry">
            <Array as="points">
              <mxPoint x="340" y="150" />
              <mxPoint x="355" y="150" />
            </Array>
          </mxGeometry>
        </mxCell>
        <mxCell id="Kb1PFaq4aZm0a-GrtZAy-59" style="edgeStyle=orthogonalEdgeStyle;rounded=0;orthogonalLoop=1;jettySize=auto;html=1;" parent="Kb1PFaq4aZm0a-GrtZAy-1" source="Kb1PFaq4aZm0a-GrtZAy-23" edge="1">
          <mxGeometry relative="1" as="geometry">
            <mxPoint x="140" y="120" as="targetPoint" />
          </mxGeometry>
        </mxCell>
        <mxCell id="Kb1PFaq4aZm0a-GrtZAy-23" value="lake silver / DQed" style="rounded=0;whiteSpace=wrap;html=1;" parent="Kb1PFaq4aZm0a-GrtZAy-1" vertex="1">
          <mxGeometry x="290.62" y="160" width="125" height="30" as="geometry" />
        </mxCell>
        <mxCell id="Kb1PFaq4aZm0a-GrtZAy-25" value="ML" style="text;html=1;align=center;verticalAlign=middle;resizable=0;points=[];autosize=1;" parent="Kb1PFaq4aZm0a-GrtZAy-1" vertex="1">
          <mxGeometry x="240" y="120" width="30" height="20" as="geometry" />
        </mxCell>
        <mxCell id="Kb1PFaq4aZm0a-GrtZAy-26" value="Services" style="text;html=1;align=center;verticalAlign=middle;resizable=0;points=[];autosize=1;" parent="Kb1PFaq4aZm0a-GrtZAy-1" vertex="1">
          <mxGeometry x="449" y="120" width="60" height="20" as="geometry" />
        </mxCell>
        <mxCell id="Kb1PFaq4aZm0a-GrtZAy-33" style="edgeStyle=orthogonalEdgeStyle;rounded=0;orthogonalLoop=1;jettySize=auto;html=1;entryX=0.5;entryY=0;entryDx=0;entryDy=0;" parent="Kb1PFaq4aZm0a-GrtZAy-1" source="Kb1PFaq4aZm0a-GrtZAy-27" target="Kb1PFaq4aZm0a-GrtZAy-19" edge="1">
          <mxGeometry relative="1" as="geometry">
            <Array as="points">
              <mxPoint x="512" y="230" />
              <mxPoint x="567" y="230" />
            </Array>
          </mxGeometry>
        </mxCell>
        <mxCell id="Kb1PFaq4aZm0a-GrtZAy-27" value="integration" style="text;html=1;align=center;verticalAlign=middle;resizable=0;points=[];autosize=1;" parent="Kb1PFaq4aZm0a-GrtZAy-1" vertex="1">
          <mxGeometry x="477" y="200" width="70" height="20" as="geometry" />
        </mxCell>
        <mxCell id="Kb1PFaq4aZm0a-GrtZAy-41" value="" style="edgeStyle=orthogonalEdgeStyle;rounded=0;orthogonalLoop=1;jettySize=auto;html=1;" parent="Kb1PFaq4aZm0a-GrtZAy-1" source="Kb1PFaq4aZm0a-GrtZAy-37" target="Kb1PFaq4aZm0a-GrtZAy-39" edge="1">
          <mxGeometry relative="1" as="geometry" />
        </mxCell>
        <mxCell id="Kb1PFaq4aZm0a-GrtZAy-37" value="Gold layer / DWH / Ref Data&amp;nbsp;" style="rounded=0;whiteSpace=wrap;html=1;" parent="Kb1PFaq4aZm0a-GrtZAy-1" vertex="1">
          <mxGeometry x="290.62" y="80" width="128.75" height="40" as="geometry" />
        </mxCell>
        <mxCell id="Kb1PFaq4aZm0a-GrtZAy-43" value="" style="edgeStyle=orthogonalEdgeStyle;rounded=0;orthogonalLoop=1;jettySize=auto;html=1;" parent="Kb1PFaq4aZm0a-GrtZAy-1" source="Kb1PFaq4aZm0a-GrtZAy-39" target="Kb1PFaq4aZm0a-GrtZAy-42" edge="1">
          <mxGeometry relative="1" as="geometry" />
        </mxCell>
        <mxCell id="Kb1PFaq4aZm0a-GrtZAy-45" value="" style="edgeStyle=orthogonalEdgeStyle;rounded=0;orthogonalLoop=1;jettySize=auto;html=1;" parent="Kb1PFaq4aZm0a-GrtZAy-1" source="Kb1PFaq4aZm0a-GrtZAy-39" target="Kb1PFaq4aZm0a-GrtZAy-44" edge="1">
          <mxGeometry relative="1" as="geometry" />
        </mxCell>
        <mxCell id="Kb1PFaq4aZm0a-GrtZAy-39" value="Data Marts" style="rounded=0;whiteSpace=wrap;html=1;" parent="Kb1PFaq4aZm0a-GrtZAy-1" vertex="1">
          <mxGeometry x="290.62" y="10" width="128.75" height="40" as="geometry" />
        </mxCell>
        <mxCell id="Kb1PFaq4aZm0a-GrtZAy-42" value="Reports" style="rhombus;whiteSpace=wrap;html=1;rounded=0;" parent="Kb1PFaq4aZm0a-GrtZAy-1" vertex="1">
          <mxGeometry x="455" y="10" width="65" height="40" as="geometry" />
        </mxCell>
        <mxCell id="Kb1PFaq4aZm0a-GrtZAy-44" value="BI&amp;nbsp;" style="rhombus;whiteSpace=wrap;html=1;rounded=0;" parent="Kb1PFaq4aZm0a-GrtZAy-1" vertex="1">
          <mxGeometry x="200" y="10" width="50" height="40" as="geometry" />
        </mxCell>
        <mxCell id="Kb1PFaq4aZm0a-GrtZAy-57" value="план на сырье по данным сережа+юра" style="text;html=1;align=center;verticalAlign=middle;resizable=0;points=[];autosize=1;" parent="Kb1PFaq4aZm0a-GrtZAy-1" vertex="1">
          <mxGeometry x="560" y="20" width="240" height="20" as="geometry" />
        </mxCell>
        <mxCell id="Kb1PFaq4aZm0a-GrtZAy-58" style="edgeStyle=orthogonalEdgeStyle;rounded=0;orthogonalLoop=1;jettySize=auto;html=1;exitX=0.75;exitY=0;exitDx=0;exitDy=0;entryX=0.746;entryY=0.357;entryDx=0;entryDy=0;entryPerimeter=0;" parent="Kb1PFaq4aZm0a-GrtZAy-1" source="Kb1PFaq4aZm0a-GrtZAy-2" target="Kb1PFaq4aZm0a-GrtZAy-2" edge="1">
          <mxGeometry relative="1" as="geometry" />
        </mxCell>
        <mxCell id="Kb1PFaq4aZm0a-GrtZAy-60" value="MDM" style="text;html=1;align=center;verticalAlign=middle;resizable=0;points=[];autosize=1;" parent="Kb1PFaq4aZm0a-GrtZAy-1" vertex="1">
          <mxGeometry x="110" y="90" width="40" height="20" as="geometry" />
        </mxCell>
        <mxCell id="Kb1PFaq4aZm0a-GrtZAy-64" style="edgeStyle=orthogonalEdgeStyle;rounded=0;orthogonalLoop=1;jettySize=auto;html=1;entryX=1.005;entryY=0.09;entryDx=0;entryDy=0;entryPerimeter=0;" parent="Kb1PFaq4aZm0a-GrtZAy-1" source="Kb1PFaq4aZm0a-GrtZAy-61" target="Kb1PFaq4aZm0a-GrtZAy-62" edge="1">
          <mxGeometry relative="1" as="geometry" />
        </mxCell>
        <mxCell id="Kb1PFaq4aZm0a-GrtZAy-61" value="A 3party or non-std" style="text;html=1;align=center;verticalAlign=middle;resizable=0;points=[];autosize=1;" parent="Kb1PFaq4aZm0a-GrtZAy-1" vertex="1">
          <mxGeometry x="605" y="80" width="120" height="20" as="geometry" />
        </mxCell>
        <mxCell id="Kb1PFaq4aZm0a-GrtZAy-63" style="edgeStyle=orthogonalEdgeStyle;rounded=0;orthogonalLoop=1;jettySize=auto;html=1;" parent="Kb1PFaq4aZm0a-GrtZAy-1" source="Kb1PFaq4aZm0a-GrtZAy-62" target="Kb1PFaq4aZm0a-GrtZAy-61" edge="1">
          <mxGeometry relative="1" as="geometry" />
        </mxCell>
        <mxCell id="Kb1PFaq4aZm0a-GrtZAy-62" value="b Ali&amp;nbsp;" style="text;html=1;align=center;verticalAlign=middle;resizable=0;points=[];autosize=1;" parent="Kb1PFaq4aZm0a-GrtZAy-1" vertex="1">
          <mxGeometry x="685" y="160" width="40" height="20" as="geometry" />
        </mxCell>
      </root>
    </mxGraphModel>
  </diagram>
  <diagram id="7R07C0rTsS0LmsPRhs-f" name="Page-9">
    <mxGraphModel dx="1476" dy="741" grid="1" gridSize="10" guides="1" tooltips="1" connect="1" arrows="1" fold="1" page="1" pageScale="1" pageWidth="827" pageHeight="1169" math="0" shadow="0">
      <root>
        <mxCell id="E0BAjhvneT9u-NiSjSCz-0" />
        <mxCell id="E0BAjhvneT9u-NiSjSCz-1" parent="E0BAjhvneT9u-NiSjSCz-0" />
        <mxCell id="E0BAjhvneT9u-NiSjSCz-4" value="" style="edgeStyle=orthogonalEdgeStyle;rounded=0;orthogonalLoop=1;jettySize=auto;html=1;" parent="E0BAjhvneT9u-NiSjSCz-1" source="E0BAjhvneT9u-NiSjSCz-2" target="E0BAjhvneT9u-NiSjSCz-3" edge="1">
          <mxGeometry relative="1" as="geometry" />
        </mxCell>
        <mxCell id="E0BAjhvneT9u-NiSjSCz-2" value="MRG&amp;nbsp;" style="ellipse;whiteSpace=wrap;html=1;" parent="E0BAjhvneT9u-NiSjSCz-1" vertex="1">
          <mxGeometry x="40" y="20" width="70" height="60" as="geometry" />
        </mxCell>
        <mxCell id="E0BAjhvneT9u-NiSjSCz-3" value="sender" style="ellipse;whiteSpace=wrap;html=1;" parent="E0BAjhvneT9u-NiSjSCz-1" vertex="1">
          <mxGeometry x="40" y="120" width="70" height="60" as="geometry" />
        </mxCell>
        <mxCell id="E0BAjhvneT9u-NiSjSCz-6" value="ali" style="ellipse;whiteSpace=wrap;html=1;" parent="E0BAjhvneT9u-NiSjSCz-1" vertex="1">
          <mxGeometry x="150" y="20" width="70" height="60" as="geometry" />
        </mxCell>
        <mxCell id="E0BAjhvneT9u-NiSjSCz-8" value="" style="edgeStyle=orthogonalEdgeStyle;rounded=0;orthogonalLoop=1;jettySize=auto;html=1;" parent="E0BAjhvneT9u-NiSjSCz-1" source="E0BAjhvneT9u-NiSjSCz-7" target="E0BAjhvneT9u-NiSjSCz-6" edge="1">
          <mxGeometry relative="1" as="geometry" />
        </mxCell>
        <mxCell id="E0BAjhvneT9u-NiSjSCz-7" value="receiver" style="ellipse;whiteSpace=wrap;html=1;" parent="E0BAjhvneT9u-NiSjSCz-1" vertex="1">
          <mxGeometry x="150" y="110" width="70" height="60" as="geometry" />
        </mxCell>
        <mxCell id="E0BAjhvneT9u-NiSjSCz-13" value="" style="edgeStyle=orthogonalEdgeStyle;rounded=0;orthogonalLoop=1;jettySize=auto;html=1;" parent="E0BAjhvneT9u-NiSjSCz-1" source="E0BAjhvneT9u-NiSjSCz-11" target="E0BAjhvneT9u-NiSjSCz-12" edge="1">
          <mxGeometry relative="1" as="geometry" />
        </mxCell>
        <mxCell id="E0BAjhvneT9u-NiSjSCz-19" value="" style="edgeStyle=orthogonalEdgeStyle;rounded=0;orthogonalLoop=1;jettySize=auto;html=1;" parent="E0BAjhvneT9u-NiSjSCz-1" source="E0BAjhvneT9u-NiSjSCz-11" target="E0BAjhvneT9u-NiSjSCz-18" edge="1">
          <mxGeometry relative="1" as="geometry" />
        </mxCell>
        <mxCell id="E0BAjhvneT9u-NiSjSCz-25" value="" style="edgeStyle=orthogonalEdgeStyle;rounded=0;orthogonalLoop=1;jettySize=auto;html=1;" parent="E0BAjhvneT9u-NiSjSCz-1" source="E0BAjhvneT9u-NiSjSCz-11" target="E0BAjhvneT9u-NiSjSCz-24" edge="1">
          <mxGeometry relative="1" as="geometry" />
        </mxCell>
        <mxCell id="E0BAjhvneT9u-NiSjSCz-11" value="балансер" style="text;html=1;strokeColor=none;fillColor=none;align=center;verticalAlign=middle;whiteSpace=wrap;rounded=0;" parent="E0BAjhvneT9u-NiSjSCz-1" vertex="1">
          <mxGeometry x="420" y="50" width="40" height="20" as="geometry" />
        </mxCell>
        <mxCell id="E0BAjhvneT9u-NiSjSCz-15" value="" style="edgeStyle=orthogonalEdgeStyle;rounded=0;orthogonalLoop=1;jettySize=auto;html=1;" parent="E0BAjhvneT9u-NiSjSCz-1" source="E0BAjhvneT9u-NiSjSCz-12" target="E0BAjhvneT9u-NiSjSCz-14" edge="1">
          <mxGeometry relative="1" as="geometry" />
        </mxCell>
        <mxCell id="E0BAjhvneT9u-NiSjSCz-21" value="" style="edgeStyle=orthogonalEdgeStyle;rounded=0;orthogonalLoop=1;jettySize=auto;html=1;" parent="E0BAjhvneT9u-NiSjSCz-1" source="E0BAjhvneT9u-NiSjSCz-12" target="E0BAjhvneT9u-NiSjSCz-20" edge="1">
          <mxGeometry relative="1" as="geometry" />
        </mxCell>
        <mxCell id="E0BAjhvneT9u-NiSjSCz-29" value="" style="edgeStyle=orthogonalEdgeStyle;rounded=0;orthogonalLoop=1;jettySize=auto;html=1;" parent="E0BAjhvneT9u-NiSjSCz-1" source="E0BAjhvneT9u-NiSjSCz-12" target="E0BAjhvneT9u-NiSjSCz-28" edge="1">
          <mxGeometry relative="1" as="geometry" />
        </mxCell>
        <mxCell id="E0BAjhvneT9u-NiSjSCz-12" value="HSF" style="text;html=1;strokeColor=none;fillColor=none;align=center;verticalAlign=middle;whiteSpace=wrap;rounded=0;" parent="E0BAjhvneT9u-NiSjSCz-1" vertex="1">
          <mxGeometry x="420" y="110" width="40" height="20" as="geometry" />
        </mxCell>
        <mxCell id="E0BAjhvneT9u-NiSjSCz-17" value="" style="edgeStyle=orthogonalEdgeStyle;rounded=0;orthogonalLoop=1;jettySize=auto;html=1;" parent="E0BAjhvneT9u-NiSjSCz-1" source="E0BAjhvneT9u-NiSjSCz-14" target="E0BAjhvneT9u-NiSjSCz-16" edge="1">
          <mxGeometry relative="1" as="geometry" />
        </mxCell>
        <mxCell id="E0BAjhvneT9u-NiSjSCz-23" value="" style="edgeStyle=orthogonalEdgeStyle;rounded=0;orthogonalLoop=1;jettySize=auto;html=1;" parent="E0BAjhvneT9u-NiSjSCz-1" source="E0BAjhvneT9u-NiSjSCz-14" target="E0BAjhvneT9u-NiSjSCz-22" edge="1">
          <mxGeometry relative="1" as="geometry" />
        </mxCell>
        <mxCell id="E0BAjhvneT9u-NiSjSCz-27" value="" style="edgeStyle=orthogonalEdgeStyle;rounded=0;orthogonalLoop=1;jettySize=auto;html=1;" parent="E0BAjhvneT9u-NiSjSCz-1" source="E0BAjhvneT9u-NiSjSCz-14" target="E0BAjhvneT9u-NiSjSCz-26" edge="1">
          <mxGeometry relative="1" as="geometry" />
        </mxCell>
        <mxCell id="E0BAjhvneT9u-NiSjSCz-14" value="service&amp;nbsp;" style="text;html=1;strokeColor=none;fillColor=none;align=center;verticalAlign=middle;whiteSpace=wrap;rounded=0;" parent="E0BAjhvneT9u-NiSjSCz-1" vertex="1">
          <mxGeometry x="420" y="160" width="40" height="20" as="geometry" />
        </mxCell>
        <mxCell id="E0BAjhvneT9u-NiSjSCz-16" value="ODPS/ RDS" style="text;html=1;strokeColor=none;fillColor=none;align=center;verticalAlign=middle;whiteSpace=wrap;rounded=0;" parent="E0BAjhvneT9u-NiSjSCz-1" vertex="1">
          <mxGeometry x="405" y="210" width="70" height="20" as="geometry" />
        </mxCell>
        <mxCell id="E0BAjhvneT9u-NiSjSCz-18" value="VIP/Mtop / Unified Proxy" style="text;html=1;strokeColor=none;fillColor=none;align=center;verticalAlign=middle;whiteSpace=wrap;rounded=0;" parent="E0BAjhvneT9u-NiSjSCz-1" vertex="1">
          <mxGeometry x="510" y="50" width="120" height="20" as="geometry" />
        </mxCell>
        <mxCell id="E0BAjhvneT9u-NiSjSCz-20" value="RPC/Rest" style="text;html=1;strokeColor=none;fillColor=none;align=center;verticalAlign=middle;whiteSpace=wrap;rounded=0;" parent="E0BAjhvneT9u-NiSjSCz-1" vertex="1">
          <mxGeometry x="500" y="110" width="40" height="20" as="geometry" />
        </mxCell>
        <mxCell id="E0BAjhvneT9u-NiSjSCz-22" value="Docker/VM/Python PyODPS/&amp;nbsp;" style="text;html=1;strokeColor=none;fillColor=none;align=center;verticalAlign=middle;whiteSpace=wrap;rounded=0;" parent="E0BAjhvneT9u-NiSjSCz-1" vertex="1">
          <mxGeometry x="500" y="160" width="40" height="20" as="geometry" />
        </mxCell>
        <mxCell id="E0BAjhvneT9u-NiSjSCz-24" value="Http / TCP" style="text;html=1;strokeColor=none;fillColor=none;align=center;verticalAlign=middle;whiteSpace=wrap;rounded=0;" parent="E0BAjhvneT9u-NiSjSCz-1" vertex="1">
          <mxGeometry x="330" y="50" width="40" height="20" as="geometry" />
        </mxCell>
        <mxCell id="E0BAjhvneT9u-NiSjSCz-26" value="daily vs Prod" style="text;html=1;strokeColor=none;fillColor=none;align=center;verticalAlign=middle;whiteSpace=wrap;rounded=0;" parent="E0BAjhvneT9u-NiSjSCz-1" vertex="1">
          <mxGeometry x="300" y="160" width="40" height="20" as="geometry" />
        </mxCell>
        <mxCell id="E0BAjhvneT9u-NiSjSCz-28" value="Auto-Scaling" style="text;html=1;strokeColor=none;fillColor=none;align=center;verticalAlign=middle;whiteSpace=wrap;rounded=0;" parent="E0BAjhvneT9u-NiSjSCz-1" vertex="1">
          <mxGeometry x="270" y="110" width="70" height="20" as="geometry" />
        </mxCell>
      </root>
    </mxGraphModel>
  </diagram>
  <diagram id="fxr54TFk7bcefAVnExQy" name="Page-10">
    <mxGraphModel dx="2303" dy="741" grid="1" gridSize="10" guides="1" tooltips="1" connect="1" arrows="1" fold="1" page="1" pageScale="1" pageWidth="827" pageHeight="1169" math="0" shadow="0">
      <root>
        <mxCell id="fTSWJk6ZIeG1dc-zYIdV-0" />
        <mxCell id="fTSWJk6ZIeG1dc-zYIdV-1" parent="fTSWJk6ZIeG1dc-zYIdV-0" />
        <mxCell id="fTSWJk6ZIeG1dc-zYIdV-22" value="" style="rounded=0;whiteSpace=wrap;html=1;" parent="fTSWJk6ZIeG1dc-zYIdV-1" vertex="1">
          <mxGeometry x="-20" y="70" width="230" height="300" as="geometry" />
        </mxCell>
        <mxCell id="fTSWJk6ZIeG1dc-zYIdV-12" style="edgeStyle=orthogonalEdgeStyle;rounded=0;orthogonalLoop=1;jettySize=auto;html=1;" parent="fTSWJk6ZIeG1dc-zYIdV-1" source="fTSWJk6ZIeG1dc-zYIdV-2" target="fTSWJk6ZIeG1dc-zYIdV-4" edge="1">
          <mxGeometry relative="1" as="geometry" />
        </mxCell>
        <mxCell id="fTSWJk6ZIeG1dc-zYIdV-2" value="AEG service" style="ellipse;whiteSpace=wrap;html=1;" parent="fTSWJk6ZIeG1dc-zYIdV-1" vertex="1">
          <mxGeometry x="40" y="90" width="80" height="70" as="geometry" />
        </mxCell>
        <mxCell id="fTSWJk6ZIeG1dc-zYIdV-13" style="edgeStyle=orthogonalEdgeStyle;rounded=0;orthogonalLoop=1;jettySize=auto;html=1;entryX=0.063;entryY=0.713;entryDx=0;entryDy=0;entryPerimeter=0;" parent="fTSWJk6ZIeG1dc-zYIdV-1" source="fTSWJk6ZIeG1dc-zYIdV-3" target="fTSWJk6ZIeG1dc-zYIdV-5" edge="1">
          <mxGeometry relative="1" as="geometry" />
        </mxCell>
        <mxCell id="fTSWJk6ZIeG1dc-zYIdV-3" value="AER service" style="ellipse;whiteSpace=wrap;html=1;" parent="fTSWJk6ZIeG1dc-zYIdV-1" vertex="1">
          <mxGeometry x="40" y="240" width="70" height="70" as="geometry" />
        </mxCell>
        <mxCell id="fTSWJk6ZIeG1dc-zYIdV-7" style="edgeStyle=orthogonalEdgeStyle;rounded=0;orthogonalLoop=1;jettySize=auto;html=1;entryX=0;entryY=0.5;entryDx=0;entryDy=0;" parent="fTSWJk6ZIeG1dc-zYIdV-1" source="fTSWJk6ZIeG1dc-zYIdV-4" target="fTSWJk6ZIeG1dc-zYIdV-6" edge="1">
          <mxGeometry relative="1" as="geometry" />
        </mxCell>
        <mxCell id="fTSWJk6ZIeG1dc-zYIdV-4" value="AGOO" style="ellipse;whiteSpace=wrap;html=1;" parent="fTSWJk6ZIeG1dc-zYIdV-1" vertex="1">
          <mxGeometry x="230" y="120" width="80" height="80" as="geometry" />
        </mxCell>
        <mxCell id="fTSWJk6ZIeG1dc-zYIdV-11" value="" style="edgeStyle=orthogonalEdgeStyle;rounded=0;orthogonalLoop=1;jettySize=auto;html=1;" parent="fTSWJk6ZIeG1dc-zYIdV-1" source="fTSWJk6ZIeG1dc-zYIdV-5" target="fTSWJk6ZIeG1dc-zYIdV-8" edge="1">
          <mxGeometry relative="1" as="geometry" />
        </mxCell>
        <mxCell id="fTSWJk6ZIeG1dc-zYIdV-24" style="edgeStyle=orthogonalEdgeStyle;rounded=0;orthogonalLoop=1;jettySize=auto;html=1;entryX=0;entryY=0.5;entryDx=0;entryDy=0;" parent="fTSWJk6ZIeG1dc-zYIdV-1" source="fTSWJk6ZIeG1dc-zYIdV-5" target="fTSWJk6ZIeG1dc-zYIdV-17" edge="1">
          <mxGeometry relative="1" as="geometry">
            <mxPoint x="370" y="520" as="targetPoint" />
            <Array as="points">
              <mxPoint x="390" y="400" />
              <mxPoint x="550" y="400" />
              <mxPoint x="550" y="390" />
              <mxPoint x="600" y="390" />
              <mxPoint x="600" y="360" />
            </Array>
          </mxGeometry>
        </mxCell>
        <mxCell id="fTSWJk6ZIeG1dc-zYIdV-5" value="Firebase&amp;nbsp;" style="ellipse;whiteSpace=wrap;html=1;" parent="fTSWJk6ZIeG1dc-zYIdV-1" vertex="1">
          <mxGeometry x="350" y="270" width="80" height="80" as="geometry" />
        </mxCell>
        <mxCell id="fTSWJk6ZIeG1dc-zYIdV-10" value="" style="edgeStyle=orthogonalEdgeStyle;rounded=0;orthogonalLoop=1;jettySize=auto;html=1;" parent="fTSWJk6ZIeG1dc-zYIdV-1" source="fTSWJk6ZIeG1dc-zYIdV-6" target="fTSWJk6ZIeG1dc-zYIdV-9" edge="1">
          <mxGeometry relative="1" as="geometry" />
        </mxCell>
        <mxCell id="fTSWJk6ZIeG1dc-zYIdV-6" value="Firebase&amp;nbsp;" style="ellipse;whiteSpace=wrap;html=1;" parent="fTSWJk6ZIeG1dc-zYIdV-1" vertex="1">
          <mxGeometry x="360" y="120" width="80" height="80" as="geometry" />
        </mxCell>
        <mxCell id="fTSWJk6ZIeG1dc-zYIdV-16" style="edgeStyle=orthogonalEdgeStyle;rounded=0;orthogonalLoop=1;jettySize=auto;html=1;entryX=0;entryY=0.5;entryDx=0;entryDy=0;" parent="fTSWJk6ZIeG1dc-zYIdV-1" source="fTSWJk6ZIeG1dc-zYIdV-8" target="fTSWJk6ZIeG1dc-zYIdV-14" edge="1">
          <mxGeometry relative="1" as="geometry" />
        </mxCell>
        <mxCell id="fTSWJk6ZIeG1dc-zYIdV-8" value="AER mobile" style="ellipse;whiteSpace=wrap;html=1;" parent="fTSWJk6ZIeG1dc-zYIdV-1" vertex="1">
          <mxGeometry x="520" y="270" width="80" height="80" as="geometry" />
        </mxCell>
        <mxCell id="fTSWJk6ZIeG1dc-zYIdV-15" value="" style="edgeStyle=orthogonalEdgeStyle;rounded=0;orthogonalLoop=1;jettySize=auto;html=1;" parent="fTSWJk6ZIeG1dc-zYIdV-1" source="fTSWJk6ZIeG1dc-zYIdV-9" target="fTSWJk6ZIeG1dc-zYIdV-14" edge="1">
          <mxGeometry relative="1" as="geometry" />
        </mxCell>
        <mxCell id="fTSWJk6ZIeG1dc-zYIdV-9" value="AEG mobile" style="ellipse;whiteSpace=wrap;html=1;" parent="fTSWJk6ZIeG1dc-zYIdV-1" vertex="1">
          <mxGeometry x="520" y="120" width="80" height="80" as="geometry" />
        </mxCell>
        <mxCell id="fTSWJk6ZIeG1dc-zYIdV-18" value="" style="edgeStyle=orthogonalEdgeStyle;rounded=0;orthogonalLoop=1;jettySize=auto;html=1;" parent="fTSWJk6ZIeG1dc-zYIdV-1" source="fTSWJk6ZIeG1dc-zYIdV-14" target="fTSWJk6ZIeG1dc-zYIdV-17" edge="1">
          <mxGeometry relative="1" as="geometry" />
        </mxCell>
        <mxCell id="fTSWJk6ZIeG1dc-zYIdV-14" value="tracking" style="ellipse;whiteSpace=wrap;html=1;" parent="fTSWJk6ZIeG1dc-zYIdV-1" vertex="1">
          <mxGeometry x="660" y="160" width="80" height="80" as="geometry" />
        </mxCell>
        <mxCell id="fTSWJk6ZIeG1dc-zYIdV-20" value="" style="edgeStyle=orthogonalEdgeStyle;rounded=0;orthogonalLoop=1;jettySize=auto;html=1;" parent="fTSWJk6ZIeG1dc-zYIdV-1" source="fTSWJk6ZIeG1dc-zYIdV-17" target="fTSWJk6ZIeG1dc-zYIdV-19" edge="1">
          <mxGeometry relative="1" as="geometry" />
        </mxCell>
        <mxCell id="fTSWJk6ZIeG1dc-zYIdV-17" value="ODPS" style="ellipse;whiteSpace=wrap;html=1;" parent="fTSWJk6ZIeG1dc-zYIdV-1" vertex="1">
          <mxGeometry x="660" y="320" width="80" height="80" as="geometry" />
        </mxCell>
        <mxCell id="fTSWJk6ZIeG1dc-zYIdV-27" value="" style="edgeStyle=orthogonalEdgeStyle;rounded=0;orthogonalLoop=1;jettySize=auto;html=1;" parent="fTSWJk6ZIeG1dc-zYIdV-1" source="fTSWJk6ZIeG1dc-zYIdV-19" target="fTSWJk6ZIeG1dc-zYIdV-26" edge="1">
          <mxGeometry relative="1" as="geometry" />
        </mxCell>
        <mxCell id="fTSWJk6ZIeG1dc-zYIdV-19" value="match RU firebase push with markup" style="ellipse;whiteSpace=wrap;html=1;" parent="fTSWJk6ZIeG1dc-zYIdV-1" vertex="1">
          <mxGeometry x="660" y="450" width="80" height="80" as="geometry" />
        </mxCell>
        <mxCell id="fTSWJk6ZIeG1dc-zYIdV-29" value="" style="edgeStyle=orthogonalEdgeStyle;rounded=0;orthogonalLoop=1;jettySize=auto;html=1;" parent="fTSWJk6ZIeG1dc-zYIdV-1" source="fTSWJk6ZIeG1dc-zYIdV-26" target="fTSWJk6ZIeG1dc-zYIdV-28" edge="1">
          <mxGeometry relative="1" as="geometry" />
        </mxCell>
        <mxCell id="fTSWJk6ZIeG1dc-zYIdV-26" value="DW tables&amp;nbsp;" style="ellipse;whiteSpace=wrap;html=1;" parent="fTSWJk6ZIeG1dc-zYIdV-1" vertex="1">
          <mxGeometry x="470" y="450" width="80" height="80" as="geometry" />
        </mxCell>
        <mxCell id="fTSWJk6ZIeG1dc-zYIdV-28" value="many reports&amp;nbsp;" style="ellipse;whiteSpace=wrap;html=1;" parent="fTSWJk6ZIeG1dc-zYIdV-1" vertex="1">
          <mxGeometry x="310" y="450" width="80" height="80" as="geometry" />
        </mxCell>
      </root>
    </mxGraphModel>
  </diagram>
  <diagram id="2cSjIEgI9Va9Fx0Y9Fec" name="Page-11">
    <mxGraphModel dx="1476" dy="1910" grid="1" gridSize="10" guides="1" tooltips="1" connect="1" arrows="1" fold="1" page="1" pageScale="1" pageWidth="827" pageHeight="1169" math="0" shadow="0">
      <root>
        <mxCell id="C1rhuZMzNDfH9TMXy2Q0-0" />
        <mxCell id="C1rhuZMzNDfH9TMXy2Q0-1" parent="C1rhuZMzNDfH9TMXy2Q0-0" />
        <mxCell id="ygJqy7oORWze_rUXyfXi-121" value="Core DWH&amp;nbsp;" style="rounded=0;whiteSpace=wrap;html=1;fillColor=#FFFF99;" parent="C1rhuZMzNDfH9TMXy2Q0-1" vertex="1">
          <mxGeometry x="90" y="130" width="670" height="140" as="geometry" />
        </mxCell>
        <mxCell id="ygJqy7oORWze_rUXyfXi-145" value="DaTa Governance &amp;amp; catalogue supporting" style="rounded=0;whiteSpace=wrap;html=1;" parent="C1rhuZMzNDfH9TMXy2Q0-1" vertex="1">
          <mxGeometry x="92.75" y="150" width="657.25" height="20" as="geometry" />
        </mxCell>
        <mxCell id="ygJqy7oORWze_rUXyfXi-144" value="DaTa Quality checks" style="rounded=0;whiteSpace=wrap;html=1;" parent="C1rhuZMzNDfH9TMXy2Q0-1" vertex="1">
          <mxGeometry x="92.75" y="170" width="657.25" height="20" as="geometry" />
        </mxCell>
        <mxCell id="ygJqy7oORWze_rUXyfXi-119" value="&lt;div style=&quot;text-align: justify&quot;&gt;&lt;br&gt;&lt;/div&gt;" style="rounded=0;whiteSpace=wrap;html=1;align=right;fillColor=#00FFFF;" parent="C1rhuZMzNDfH9TMXy2Q0-1" vertex="1">
          <mxGeometry x="105.5" y="270" width="654.5" height="160" as="geometry" />
        </mxCell>
        <mxCell id="ygJqy7oORWze_rUXyfXi-62" style="edgeStyle=orthogonalEdgeStyle;rounded=0;orthogonalLoop=1;jettySize=auto;html=1;entryX=0.5;entryY=1;entryDx=0;entryDy=0;" parent="C1rhuZMzNDfH9TMXy2Q0-1" source="ygJqy7oORWze_rUXyfXi-49" target="ygJqy7oORWze_rUXyfXi-53" edge="1">
          <mxGeometry relative="1" as="geometry" />
        </mxCell>
        <mxCell id="ygJqy7oORWze_rUXyfXi-63" style="edgeStyle=orthogonalEdgeStyle;rounded=0;orthogonalLoop=1;jettySize=auto;html=1;entryX=0.5;entryY=1;entryDx=0;entryDy=0;" parent="C1rhuZMzNDfH9TMXy2Q0-1" source="ygJqy7oORWze_rUXyfXi-49" target="ygJqy7oORWze_rUXyfXi-55" edge="1">
          <mxGeometry relative="1" as="geometry" />
        </mxCell>
        <mxCell id="ygJqy7oORWze_rUXyfXi-49" value="Core Team" style="ellipse;whiteSpace=wrap;html=1;" parent="C1rhuZMzNDfH9TMXy2Q0-1" vertex="1">
          <mxGeometry x="360" y="440" width="70" height="60" as="geometry" />
        </mxCell>
        <mxCell id="ygJqy7oORWze_rUXyfXi-61" value="" style="edgeStyle=orthogonalEdgeStyle;rounded=0;orthogonalLoop=1;jettySize=auto;html=1;entryX=0.638;entryY=0.983;entryDx=0;entryDy=0;entryPerimeter=0;" parent="C1rhuZMzNDfH9TMXy2Q0-1" source="ygJqy7oORWze_rUXyfXi-53" target="ygJqy7oORWze_rUXyfXi-57" edge="1">
          <mxGeometry relative="1" as="geometry">
            <mxPoint x="483" y="340" as="targetPoint" />
            <Array as="points">
              <mxPoint x="485" y="360" />
              <mxPoint x="485" y="360" />
            </Array>
          </mxGeometry>
        </mxCell>
        <mxCell id="ygJqy7oORWze_rUXyfXi-53" value="Core Tools" style="ellipse;whiteSpace=wrap;html=1;" parent="C1rhuZMzNDfH9TMXy2Q0-1" vertex="1">
          <mxGeometry x="598" y="360" width="70" height="60" as="geometry" />
        </mxCell>
        <mxCell id="ygJqy7oORWze_rUXyfXi-60" value="" style="edgeStyle=orthogonalEdgeStyle;rounded=0;orthogonalLoop=1;jettySize=auto;html=1;entryX=0.319;entryY=1.05;entryDx=0;entryDy=0;entryPerimeter=0;" parent="C1rhuZMzNDfH9TMXy2Q0-1" source="ygJqy7oORWze_rUXyfXi-55" target="ygJqy7oORWze_rUXyfXi-57" edge="1">
          <mxGeometry relative="1" as="geometry">
            <mxPoint x="320" y="270" as="targetPoint" />
            <Array as="points">
              <mxPoint x="321" y="360" />
            </Array>
          </mxGeometry>
        </mxCell>
        <mxCell id="ygJqy7oORWze_rUXyfXi-55" value="Core Services" style="ellipse;whiteSpace=wrap;html=1;" parent="C1rhuZMzNDfH9TMXy2Q0-1" vertex="1">
          <mxGeometry x="160" y="360" width="70" height="60" as="geometry" />
        </mxCell>
        <mxCell id="ygJqy7oORWze_rUXyfXi-57" value="Core data infrastructure&amp;nbsp;" style="rounded=0;whiteSpace=wrap;html=1;" parent="C1rhuZMzNDfH9TMXy2Q0-1" vertex="1">
          <mxGeometry x="157" y="310" width="514" height="30" as="geometry" />
        </mxCell>
        <mxCell id="ygJqy7oORWze_rUXyfXi-65" value="Core Tools DE / Di / DQ / DT / DG / BI&amp;nbsp;" style="rounded=0;whiteSpace=wrap;html=1;" parent="C1rhuZMzNDfH9TMXy2Q0-1" vertex="1">
          <mxGeometry x="157" y="270" width="514" height="30" as="geometry" />
        </mxCell>
        <mxCell id="ygJqy7oORWze_rUXyfXi-79" style="edgeStyle=orthogonalEdgeStyle;rounded=0;orthogonalLoop=1;jettySize=auto;html=1;entryX=0.5;entryY=0;entryDx=0;entryDy=0;" parent="C1rhuZMzNDfH9TMXy2Q0-1" source="ygJqy7oORWze_rUXyfXi-66" edge="1">
          <mxGeometry relative="1" as="geometry">
            <mxPoint x="200" y="190" as="targetPoint" />
          </mxGeometry>
        </mxCell>
        <mxCell id="ygJqy7oORWze_rUXyfXi-108" value="" style="edgeStyle=orthogonalEdgeStyle;rounded=0;orthogonalLoop=1;jettySize=auto;html=1;" parent="C1rhuZMzNDfH9TMXy2Q0-1" source="ygJqy7oORWze_rUXyfXi-66" target="ygJqy7oORWze_rUXyfXi-107" edge="1">
          <mxGeometry relative="1" as="geometry" />
        </mxCell>
        <mxCell id="ygJqy7oORWze_rUXyfXi-66" value="" style="shape=umlActor;verticalLabelPosition=bottom;verticalAlign=top;html=1;outlineConnect=0;" parent="C1rhuZMzNDfH9TMXy2Q0-1" vertex="1">
          <mxGeometry x="185" y="70" width="30" height="50" as="geometry" />
        </mxCell>
        <mxCell id="ygJqy7oORWze_rUXyfXi-68" value="domain Model" style="rounded=0;whiteSpace=wrap;html=1;" parent="C1rhuZMzNDfH9TMXy2Q0-1" vertex="1">
          <mxGeometry x="160" y="190" width="73" height="50" as="geometry" />
        </mxCell>
        <mxCell id="ygJqy7oORWze_rUXyfXi-73" value="domain Model" style="rounded=0;whiteSpace=wrap;html=1;" parent="C1rhuZMzNDfH9TMXy2Q0-1" vertex="1">
          <mxGeometry x="233" y="190" width="73" height="50" as="geometry" />
        </mxCell>
        <mxCell id="ygJqy7oORWze_rUXyfXi-74" value="domain Model" style="rounded=0;whiteSpace=wrap;html=1;" parent="C1rhuZMzNDfH9TMXy2Q0-1" vertex="1">
          <mxGeometry x="601" y="190" width="73" height="50" as="geometry" />
        </mxCell>
        <mxCell id="ygJqy7oORWze_rUXyfXi-75" value="domain Model" style="rounded=0;whiteSpace=wrap;html=1;" parent="C1rhuZMzNDfH9TMXy2Q0-1" vertex="1">
          <mxGeometry x="528" y="190" width="73" height="50" as="geometry" />
        </mxCell>
        <mxCell id="ygJqy7oORWze_rUXyfXi-76" value="domain Model" style="rounded=0;whiteSpace=wrap;html=1;" parent="C1rhuZMzNDfH9TMXy2Q0-1" vertex="1">
          <mxGeometry x="453" y="190" width="73" height="50" as="geometry" />
        </mxCell>
        <mxCell id="ygJqy7oORWze_rUXyfXi-77" value="domain Model" style="rounded=0;whiteSpace=wrap;html=1;" parent="C1rhuZMzNDfH9TMXy2Q0-1" vertex="1">
          <mxGeometry x="380.5" y="190" width="73" height="50" as="geometry" />
        </mxCell>
        <mxCell id="ygJqy7oORWze_rUXyfXi-78" value="domain Model" style="rounded=0;whiteSpace=wrap;html=1;" parent="C1rhuZMzNDfH9TMXy2Q0-1" vertex="1">
          <mxGeometry x="306" y="190" width="73" height="50" as="geometry" />
        </mxCell>
        <mxCell id="ygJqy7oORWze_rUXyfXi-88" style="edgeStyle=orthogonalEdgeStyle;rounded=0;orthogonalLoop=1;jettySize=auto;html=1;entryX=0.5;entryY=0;entryDx=0;entryDy=0;" parent="C1rhuZMzNDfH9TMXy2Q0-1" source="ygJqy7oORWze_rUXyfXi-82" edge="1">
          <mxGeometry relative="1" as="geometry">
            <mxPoint x="273" y="190" as="targetPoint" />
          </mxGeometry>
        </mxCell>
        <mxCell id="ygJqy7oORWze_rUXyfXi-82" value="" style="shape=umlActor;verticalLabelPosition=bottom;verticalAlign=top;html=1;outlineConnect=0;" parent="C1rhuZMzNDfH9TMXy2Q0-1" vertex="1">
          <mxGeometry x="258" y="70" width="30" height="50" as="geometry" />
        </mxCell>
        <mxCell id="ygJqy7oORWze_rUXyfXi-90" style="edgeStyle=orthogonalEdgeStyle;rounded=0;orthogonalLoop=1;jettySize=auto;html=1;entryX=0.5;entryY=0;entryDx=0;entryDy=0;" parent="C1rhuZMzNDfH9TMXy2Q0-1" source="ygJqy7oORWze_rUXyfXi-83" edge="1">
          <mxGeometry relative="1" as="geometry">
            <mxPoint x="346" y="190" as="targetPoint" />
          </mxGeometry>
        </mxCell>
        <mxCell id="ygJqy7oORWze_rUXyfXi-118" value="" style="edgeStyle=orthogonalEdgeStyle;rounded=0;orthogonalLoop=1;jettySize=auto;html=1;" parent="C1rhuZMzNDfH9TMXy2Q0-1" source="ygJqy7oORWze_rUXyfXi-83" target="ygJqy7oORWze_rUXyfXi-117" edge="1">
          <mxGeometry relative="1" as="geometry" />
        </mxCell>
        <mxCell id="ygJqy7oORWze_rUXyfXi-83" value="" style="shape=umlActor;verticalLabelPosition=bottom;verticalAlign=top;html=1;outlineConnect=0;" parent="C1rhuZMzNDfH9TMXy2Q0-1" vertex="1">
          <mxGeometry x="331" y="70" width="30" height="50" as="geometry" />
        </mxCell>
        <mxCell id="ygJqy7oORWze_rUXyfXi-93" style="edgeStyle=orthogonalEdgeStyle;rounded=0;orthogonalLoop=1;jettySize=auto;html=1;entryX=0.5;entryY=0;entryDx=0;entryDy=0;" parent="C1rhuZMzNDfH9TMXy2Q0-1" source="ygJqy7oORWze_rUXyfXi-84" edge="1">
          <mxGeometry relative="1" as="geometry">
            <mxPoint x="420.5" y="190" as="targetPoint" />
          </mxGeometry>
        </mxCell>
        <mxCell id="ygJqy7oORWze_rUXyfXi-84" value="" style="shape=umlActor;verticalLabelPosition=bottom;verticalAlign=top;html=1;outlineConnect=0;" parent="C1rhuZMzNDfH9TMXy2Q0-1" vertex="1">
          <mxGeometry x="406.38" y="60" width="30" height="50" as="geometry" />
        </mxCell>
        <mxCell id="ygJqy7oORWze_rUXyfXi-97" style="edgeStyle=orthogonalEdgeStyle;rounded=0;orthogonalLoop=1;jettySize=auto;html=1;" parent="C1rhuZMzNDfH9TMXy2Q0-1" source="ygJqy7oORWze_rUXyfXi-85" edge="1">
          <mxGeometry relative="1" as="geometry">
            <mxPoint x="493" y="190" as="targetPoint" />
          </mxGeometry>
        </mxCell>
        <mxCell id="ygJqy7oORWze_rUXyfXi-115" value="" style="edgeStyle=orthogonalEdgeStyle;rounded=0;orthogonalLoop=1;jettySize=auto;html=1;" parent="C1rhuZMzNDfH9TMXy2Q0-1" source="ygJqy7oORWze_rUXyfXi-85" target="ygJqy7oORWze_rUXyfXi-114" edge="1">
          <mxGeometry relative="1" as="geometry" />
        </mxCell>
        <mxCell id="ygJqy7oORWze_rUXyfXi-85" value="" style="shape=umlActor;verticalLabelPosition=bottom;verticalAlign=top;html=1;outlineConnect=0;" parent="C1rhuZMzNDfH9TMXy2Q0-1" vertex="1">
          <mxGeometry x="478" y="60" width="30" height="50" as="geometry" />
        </mxCell>
        <mxCell id="ygJqy7oORWze_rUXyfXi-98" style="edgeStyle=orthogonalEdgeStyle;rounded=0;orthogonalLoop=1;jettySize=auto;html=1;" parent="C1rhuZMzNDfH9TMXy2Q0-1" source="ygJqy7oORWze_rUXyfXi-86" edge="1">
          <mxGeometry relative="1" as="geometry">
            <mxPoint x="568" y="190" as="targetPoint" />
          </mxGeometry>
        </mxCell>
        <mxCell id="ygJqy7oORWze_rUXyfXi-86" value="" style="shape=umlActor;verticalLabelPosition=bottom;verticalAlign=top;html=1;outlineConnect=0;" parent="C1rhuZMzNDfH9TMXy2Q0-1" vertex="1">
          <mxGeometry x="550" y="60" width="30" height="50" as="geometry" />
        </mxCell>
        <mxCell id="ygJqy7oORWze_rUXyfXi-99" style="edgeStyle=orthogonalEdgeStyle;rounded=0;orthogonalLoop=1;jettySize=auto;html=1;" parent="C1rhuZMzNDfH9TMXy2Q0-1" source="ygJqy7oORWze_rUXyfXi-87" edge="1">
          <mxGeometry relative="1" as="geometry">
            <mxPoint x="641" y="190" as="targetPoint" />
          </mxGeometry>
        </mxCell>
        <mxCell id="ygJqy7oORWze_rUXyfXi-113" value="" style="edgeStyle=orthogonalEdgeStyle;rounded=0;orthogonalLoop=1;jettySize=auto;html=1;" parent="C1rhuZMzNDfH9TMXy2Q0-1" source="ygJqy7oORWze_rUXyfXi-87" target="ygJqy7oORWze_rUXyfXi-112" edge="1">
          <mxGeometry relative="1" as="geometry" />
        </mxCell>
        <mxCell id="ygJqy7oORWze_rUXyfXi-87" value="" style="shape=umlActor;verticalLabelPosition=bottom;verticalAlign=top;html=1;outlineConnect=0;" parent="C1rhuZMzNDfH9TMXy2Q0-1" vertex="1">
          <mxGeometry x="626" y="60" width="30" height="50" as="geometry" />
        </mxCell>
        <mxCell id="ygJqy7oORWze_rUXyfXi-136" value="" style="edgeStyle=orthogonalEdgeStyle;rounded=0;orthogonalLoop=1;jettySize=auto;html=1;" parent="C1rhuZMzNDfH9TMXy2Q0-1" source="ygJqy7oORWze_rUXyfXi-107" target="ygJqy7oORWze_rUXyfXi-135" edge="1">
          <mxGeometry relative="1" as="geometry" />
        </mxCell>
        <mxCell id="ygJqy7oORWze_rUXyfXi-107" value="&lt;br&gt;Finance domain" style="rhombus;whiteSpace=wrap;html=1;verticalAlign=top;" parent="C1rhuZMzNDfH9TMXy2Q0-1" vertex="1">
          <mxGeometry x="160" y="-55" width="80" height="80" as="geometry" />
        </mxCell>
        <mxCell id="ygJqy7oORWze_rUXyfXi-141" style="edgeStyle=orthogonalEdgeStyle;rounded=0;orthogonalLoop=1;jettySize=auto;html=1;" parent="C1rhuZMzNDfH9TMXy2Q0-1" source="ygJqy7oORWze_rUXyfXi-112" target="ygJqy7oORWze_rUXyfXi-139" edge="1">
          <mxGeometry relative="1" as="geometry">
            <Array as="points">
              <mxPoint x="641" y="-90" />
              <mxPoint x="554" y="-90" />
            </Array>
          </mxGeometry>
        </mxCell>
        <mxCell id="ygJqy7oORWze_rUXyfXi-112" value="&lt;br&gt;sales&amp;nbsp; &amp;nbsp; domain&lt;br&gt;" style="rhombus;whiteSpace=wrap;html=1;verticalAlign=top;" parent="C1rhuZMzNDfH9TMXy2Q0-1" vertex="1">
          <mxGeometry x="601" y="-55" width="80" height="80" as="geometry" />
        </mxCell>
        <mxCell id="ygJqy7oORWze_rUXyfXi-140" value="" style="edgeStyle=orthogonalEdgeStyle;rounded=0;orthogonalLoop=1;jettySize=auto;html=1;" parent="C1rhuZMzNDfH9TMXy2Q0-1" source="ygJqy7oORWze_rUXyfXi-114" target="ygJqy7oORWze_rUXyfXi-139" edge="1">
          <mxGeometry relative="1" as="geometry" />
        </mxCell>
        <mxCell id="ygJqy7oORWze_rUXyfXi-114" value="&lt;br&gt;supply&amp;nbsp; &lt;br&gt;&amp;nbsp;domain" style="rhombus;whiteSpace=wrap;html=1;verticalAlign=top;" parent="C1rhuZMzNDfH9TMXy2Q0-1" vertex="1">
          <mxGeometry x="453" y="-55" width="80" height="80" as="geometry" />
        </mxCell>
        <mxCell id="ygJqy7oORWze_rUXyfXi-137" style="edgeStyle=orthogonalEdgeStyle;rounded=0;orthogonalLoop=1;jettySize=auto;html=1;entryX=0.5;entryY=1;entryDx=0;entryDy=0;" parent="C1rhuZMzNDfH9TMXy2Q0-1" source="ygJqy7oORWze_rUXyfXi-117" target="ygJqy7oORWze_rUXyfXi-135" edge="1">
          <mxGeometry relative="1" as="geometry">
            <Array as="points">
              <mxPoint x="346.5" y="-95" />
              <mxPoint x="269.5" y="-95" />
            </Array>
          </mxGeometry>
        </mxCell>
        <mxCell id="ygJqy7oORWze_rUXyfXi-117" value="&lt;br&gt;Marketing Domain" style="rhombus;whiteSpace=wrap;html=1;verticalAlign=top;" parent="C1rhuZMzNDfH9TMXy2Q0-1" vertex="1">
          <mxGeometry x="306" y="-55" width="80" height="80" as="geometry" />
        </mxCell>
        <mxCell id="ygJqy7oORWze_rUXyfXi-120" value="&lt;font style=&quot;font-size: 48px&quot;&gt;Core Platform&lt;/font&gt;" style="text;html=1;strokeColor=none;fillColor=none;align=center;verticalAlign=middle;whiteSpace=wrap;rounded=0;" parent="C1rhuZMzNDfH9TMXy2Q0-1" vertex="1">
          <mxGeometry x="230" y="380" width="350" height="20" as="geometry" />
        </mxCell>
        <mxCell id="ygJqy7oORWze_rUXyfXi-135" value="Data &lt;br&gt;product&lt;br&gt;Fin+Marketing&amp;nbsp;" style="ellipse;whiteSpace=wrap;html=1;verticalAlign=top;" parent="C1rhuZMzNDfH9TMXy2Q0-1" vertex="1">
          <mxGeometry x="215" y="-180" width="95" height="70" as="geometry" />
        </mxCell>
        <mxCell id="ygJqy7oORWze_rUXyfXi-139" value="&lt;br&gt;sales &amp;amp; supplying&amp;nbsp; data product" style="ellipse;whiteSpace=wrap;html=1;verticalAlign=top;" parent="C1rhuZMzNDfH9TMXy2Q0-1" vertex="1">
          <mxGeometry x="508" y="-180" width="112" height="70" as="geometry" />
        </mxCell>
        <mxCell id="ygJqy7oORWze_rUXyfXi-146" value="Core Dwh" style="text;html=1;strokeColor=none;fillColor=none;align=center;verticalAlign=middle;whiteSpace=wrap;rounded=0;" parent="C1rhuZMzNDfH9TMXy2Q0-1" vertex="1">
          <mxGeometry x="369.88" y="240" width="103" height="20" as="geometry" />
        </mxCell>
        <mxCell id="ygJqy7oORWze_rUXyfXi-150" style="edgeStyle=orthogonalEdgeStyle;rounded=0;orthogonalLoop=1;jettySize=auto;html=1;entryX=0;entryY=0.5;entryDx=0;entryDy=0;" parent="C1rhuZMzNDfH9TMXy2Q0-1" source="ygJqy7oORWze_rUXyfXi-147" target="ygJqy7oORWze_rUXyfXi-135" edge="1">
          <mxGeometry relative="1" as="geometry">
            <Array as="points">
              <mxPoint x="110" y="-145" />
            </Array>
          </mxGeometry>
        </mxCell>
        <mxCell id="ygJqy7oORWze_rUXyfXi-152" style="edgeStyle=orthogonalEdgeStyle;rounded=0;orthogonalLoop=1;jettySize=auto;html=1;entryX=0.069;entryY=-0.007;entryDx=0;entryDy=0;entryPerimeter=0;" parent="C1rhuZMzNDfH9TMXy2Q0-1" source="ygJqy7oORWze_rUXyfXi-147" target="ygJqy7oORWze_rUXyfXi-121" edge="1">
          <mxGeometry relative="1" as="geometry" />
        </mxCell>
        <mxCell id="ygJqy7oORWze_rUXyfXi-147" value="Data Quality Policy" style="rounded=1;whiteSpace=wrap;html=1;rotation=-90;fillColor=#dae8fc;strokeColor=#6c8ebf;" parent="C1rhuZMzNDfH9TMXy2Q0-1" vertex="1">
          <mxGeometry x="-182" width="470" height="60" as="geometry" />
        </mxCell>
        <mxCell id="ygJqy7oORWze_rUXyfXi-151" style="edgeStyle=orthogonalEdgeStyle;rounded=0;orthogonalLoop=1;jettySize=auto;html=1;entryX=1;entryY=0.5;entryDx=0;entryDy=0;" parent="C1rhuZMzNDfH9TMXy2Q0-1" source="ygJqy7oORWze_rUXyfXi-148" target="ygJqy7oORWze_rUXyfXi-139" edge="1">
          <mxGeometry relative="1" as="geometry">
            <Array as="points">
              <mxPoint x="720" y="-145" />
            </Array>
          </mxGeometry>
        </mxCell>
        <mxCell id="ygJqy7oORWze_rUXyfXi-153" style="edgeStyle=orthogonalEdgeStyle;rounded=0;orthogonalLoop=1;jettySize=auto;html=1;entryX=0.903;entryY=0;entryDx=0;entryDy=0;entryPerimeter=0;" parent="C1rhuZMzNDfH9TMXy2Q0-1" source="ygJqy7oORWze_rUXyfXi-148" target="ygJqy7oORWze_rUXyfXi-121" edge="1">
          <mxGeometry relative="1" as="geometry">
            <Array as="points" />
          </mxGeometry>
        </mxCell>
        <mxCell id="ygJqy7oORWze_rUXyfXi-148" value="Data Governance Poliicy" style="rounded=1;whiteSpace=wrap;html=1;rotation=-90;fillColor=#dae8fc;strokeColor=#6c8ebf;" parent="C1rhuZMzNDfH9TMXy2Q0-1" vertex="1">
          <mxGeometry x="560" width="470" height="60" as="geometry" />
        </mxCell>
        <mxCell id="ygJqy7oORWze_rUXyfXi-155" style="edgeStyle=orthogonalEdgeStyle;rounded=0;orthogonalLoop=1;jettySize=auto;html=1;" parent="C1rhuZMzNDfH9TMXy2Q0-1" source="ygJqy7oORWze_rUXyfXi-154" target="ygJqy7oORWze_rUXyfXi-135" edge="1">
          <mxGeometry relative="1" as="geometry" />
        </mxCell>
        <mxCell id="ygJqy7oORWze_rUXyfXi-156" style="edgeStyle=orthogonalEdgeStyle;rounded=0;orthogonalLoop=1;jettySize=auto;html=1;" parent="C1rhuZMzNDfH9TMXy2Q0-1" source="ygJqy7oORWze_rUXyfXi-154" target="ygJqy7oORWze_rUXyfXi-139" edge="1">
          <mxGeometry relative="1" as="geometry" />
        </mxCell>
        <mxCell id="ygJqy7oORWze_rUXyfXi-154" value="Architecture Guides&lt;br&gt;Design Policy&amp;nbsp;" style="rounded=1;whiteSpace=wrap;html=1;" parent="C1rhuZMzNDfH9TMXy2Q0-1" vertex="1">
          <mxGeometry x="351.5" y="-220" width="120" height="60" as="geometry" />
        </mxCell>
        <mxCell id="ygJqy7oORWze_rUXyfXi-158" style="edgeStyle=orthogonalEdgeStyle;rounded=0;orthogonalLoop=1;jettySize=auto;html=1;entryX=1;entryY=0.25;entryDx=0;entryDy=0;" parent="C1rhuZMzNDfH9TMXy2Q0-1" source="ygJqy7oORWze_rUXyfXi-157" target="ygJqy7oORWze_rUXyfXi-147" edge="1">
          <mxGeometry relative="1" as="geometry">
            <Array as="points">
              <mxPoint x="100" y="-300" />
              <mxPoint x="38" y="-300" />
            </Array>
          </mxGeometry>
        </mxCell>
        <mxCell id="ygJqy7oORWze_rUXyfXi-159" style="edgeStyle=orthogonalEdgeStyle;rounded=0;orthogonalLoop=1;jettySize=auto;html=1;entryX=1;entryY=0.5;entryDx=0;entryDy=0;" parent="C1rhuZMzNDfH9TMXy2Q0-1" source="ygJqy7oORWze_rUXyfXi-157" target="ygJqy7oORWze_rUXyfXi-148" edge="1">
          <mxGeometry relative="1" as="geometry">
            <Array as="points">
              <mxPoint x="760" y="-300" />
              <mxPoint x="795" y="-300" />
            </Array>
          </mxGeometry>
        </mxCell>
        <mxCell id="ygJqy7oORWze_rUXyfXi-161" style="edgeStyle=orthogonalEdgeStyle;rounded=0;orthogonalLoop=1;jettySize=auto;html=1;entryX=0.5;entryY=0;entryDx=0;entryDy=0;" parent="C1rhuZMzNDfH9TMXy2Q0-1" source="ygJqy7oORWze_rUXyfXi-157" target="ygJqy7oORWze_rUXyfXi-154" edge="1">
          <mxGeometry relative="1" as="geometry" />
        </mxCell>
        <mxCell id="ygJqy7oORWze_rUXyfXi-157" value="Federal Data Governance, Quality , Architecture Team&amp;nbsp;" style="shape=hexagon;perimeter=hexagonPerimeter2;whiteSpace=wrap;html=1;fixedSize=1;fillColor=#FFCCFF;" parent="C1rhuZMzNDfH9TMXy2Q0-1" vertex="1">
          <mxGeometry x="40" y="-380" width="750" height="60" as="geometry" />
        </mxCell>
        <mxCell id="ygJqy7oORWze_rUXyfXi-164" style="edgeStyle=orthogonalEdgeStyle;rounded=0;orthogonalLoop=1;jettySize=auto;html=1;" parent="C1rhuZMzNDfH9TMXy2Q0-1" source="ygJqy7oORWze_rUXyfXi-163" target="ygJqy7oORWze_rUXyfXi-135" edge="1">
          <mxGeometry relative="1" as="geometry" />
        </mxCell>
        <mxCell id="ygJqy7oORWze_rUXyfXi-165" value="" style="edgeStyle=orthogonalEdgeStyle;rounded=0;orthogonalLoop=1;jettySize=auto;html=1;" parent="C1rhuZMzNDfH9TMXy2Q0-1" source="ygJqy7oORWze_rUXyfXi-163" target="ygJqy7oORWze_rUXyfXi-135" edge="1">
          <mxGeometry relative="1" as="geometry" />
        </mxCell>
        <mxCell id="ygJqy7oORWze_rUXyfXi-163" value="Actor" style="shape=umlActor;verticalLabelPosition=bottom;verticalAlign=top;html=1;outlineConnect=0;fillColor=#FFFF99;" parent="C1rhuZMzNDfH9TMXy2Q0-1" vertex="1">
          <mxGeometry x="160" y="-270" width="40" height="50" as="geometry" />
        </mxCell>
        <mxCell id="ygJqy7oORWze_rUXyfXi-167" style="edgeStyle=orthogonalEdgeStyle;rounded=0;orthogonalLoop=1;jettySize=auto;html=1;" parent="C1rhuZMzNDfH9TMXy2Q0-1" source="ygJqy7oORWze_rUXyfXi-166" target="ygJqy7oORWze_rUXyfXi-139" edge="1">
          <mxGeometry relative="1" as="geometry" />
        </mxCell>
        <mxCell id="ygJqy7oORWze_rUXyfXi-166" value="Actor" style="shape=umlActor;verticalLabelPosition=bottom;verticalAlign=top;html=1;outlineConnect=0;fillColor=#FFFF99;" parent="C1rhuZMzNDfH9TMXy2Q0-1" vertex="1">
          <mxGeometry x="641" y="-270" width="40" height="50" as="geometry" />
        </mxCell>
      </root>
    </mxGraphModel>
  </diagram>
  <diagram id="il3EjqipvxQNPsO6e2LA" name="Page-12">
    <mxGraphModel dx="2138" dy="1732" grid="1" gridSize="10" guides="1" tooltips="1" connect="1" arrows="1" fold="1" page="1" pageScale="1" pageWidth="1169" pageHeight="827" math="0" shadow="0">
      <root>
        <mxCell id="bI9L5rNSc7lEZbF2SyRt-0" />
        <mxCell id="bI9L5rNSc7lEZbF2SyRt-1" parent="bI9L5rNSc7lEZbF2SyRt-0" />
        <mxCell id="bTojiUADneSwpfyPgZL4-0" value="storage layer" style="rounded=0;whiteSpace=wrap;html=1;" parent="bI9L5rNSc7lEZbF2SyRt-1" vertex="1">
          <mxGeometry x="40" y="280" width="290" height="60" as="geometry" />
        </mxCell>
        <mxCell id="bTojiUADneSwpfyPgZL4-2" value="compute layer" style="rounded=0;whiteSpace=wrap;html=1;" parent="bI9L5rNSc7lEZbF2SyRt-1" vertex="1">
          <mxGeometry x="40" y="220" width="290" height="60" as="geometry" />
        </mxCell>
        <mxCell id="bTojiUADneSwpfyPgZL4-3" value="service layer" style="rounded=0;whiteSpace=wrap;html=1;" parent="bI9L5rNSc7lEZbF2SyRt-1" vertex="1">
          <mxGeometry x="40" y="160" width="290" height="60" as="geometry" />
        </mxCell>
        <mxCell id="bTojiUADneSwpfyPgZL4-4" value="exploration &amp;amp; research" style="rounded=0;whiteSpace=wrap;html=1;" parent="bI9L5rNSc7lEZbF2SyRt-1" vertex="1">
          <mxGeometry x="190" y="100" width="140" height="60" as="geometry" />
        </mxCell>
        <mxCell id="bTojiUADneSwpfyPgZL4-5" value="slice &amp;amp; dice&amp;nbsp;" style="rounded=0;whiteSpace=wrap;html=1;" parent="bI9L5rNSc7lEZbF2SyRt-1" vertex="1">
          <mxGeometry x="40" y="100" width="150" height="60" as="geometry" />
        </mxCell>
        <mxCell id="bTojiUADneSwpfyPgZL4-6" value="data marts &amp;amp; analytics &amp;amp; ETL" style="rounded=0;whiteSpace=wrap;html=1;" parent="bI9L5rNSc7lEZbF2SyRt-1" vertex="1">
          <mxGeometry x="40" y="40" width="290" height="60" as="geometry" />
        </mxCell>
        <mxCell id="bTojiUADneSwpfyPgZL4-7" value="Хранение (быстро записать дешево хранить)" style="rounded=0;whiteSpace=wrap;html=1;" parent="bI9L5rNSc7lEZbF2SyRt-1" vertex="1">
          <mxGeometry x="360" y="100" width="290" height="60" as="geometry" />
        </mxCell>
        <mxCell id="bTojiUADneSwpfyPgZL4-8" value="быстро поднять из хранения и обработать" style="rounded=0;whiteSpace=wrap;html=1;" parent="bI9L5rNSc7lEZbF2SyRt-1" vertex="1">
          <mxGeometry x="360" y="40" width="290" height="60" as="geometry" />
        </mxCell>
        <mxCell id="bTojiUADneSwpfyPgZL4-29" value="" style="edgeStyle=orthogonalEdgeStyle;rounded=0;orthogonalLoop=1;jettySize=auto;html=1;" parent="bI9L5rNSc7lEZbF2SyRt-1" source="bTojiUADneSwpfyPgZL4-9" target="bTojiUADneSwpfyPgZL4-28" edge="1">
          <mxGeometry relative="1" as="geometry" />
        </mxCell>
        <mxCell id="bTojiUADneSwpfyPgZL4-35" value="" style="edgeStyle=orthogonalEdgeStyle;rounded=0;orthogonalLoop=1;jettySize=auto;html=1;" parent="bI9L5rNSc7lEZbF2SyRt-1" source="bTojiUADneSwpfyPgZL4-9" target="bTojiUADneSwpfyPgZL4-10" edge="1">
          <mxGeometry relative="1" as="geometry" />
        </mxCell>
        <mxCell id="bTojiUADneSwpfyPgZL4-9" value="in-memory &lt;br&gt;hot storage" style="ellipse;whiteSpace=wrap;html=1;" parent="bI9L5rNSc7lEZbF2SyRt-1" vertex="1">
          <mxGeometry x="470" y="470" width="90" height="80" as="geometry" />
        </mxCell>
        <mxCell id="bTojiUADneSwpfyPgZL4-37" style="edgeStyle=orthogonalEdgeStyle;rounded=0;orthogonalLoop=1;jettySize=auto;html=1;entryX=1;entryY=1;entryDx=0;entryDy=0;" parent="bI9L5rNSc7lEZbF2SyRt-1" source="bTojiUADneSwpfyPgZL4-10" target="bTojiUADneSwpfyPgZL4-9" edge="1">
          <mxGeometry relative="1" as="geometry">
            <Array as="points">
              <mxPoint x="547" y="580" />
              <mxPoint x="547" y="580" />
            </Array>
          </mxGeometry>
        </mxCell>
        <mxCell id="bTojiUADneSwpfyPgZL4-10" value="lake cold storage" style="shape=cylinder3;whiteSpace=wrap;html=1;boundedLbl=1;backgroundOutline=1;size=15;" parent="bI9L5rNSc7lEZbF2SyRt-1" vertex="1">
          <mxGeometry x="455" y="590" width="120" height="70" as="geometry" />
        </mxCell>
        <mxCell id="bTojiUADneSwpfyPgZL4-17" style="edgeStyle=orthogonalEdgeStyle;rounded=0;orthogonalLoop=1;jettySize=auto;html=1;entryX=0.054;entryY=0.003;entryDx=0;entryDy=0;entryPerimeter=0;" parent="bI9L5rNSc7lEZbF2SyRt-1" source="bTojiUADneSwpfyPgZL4-13" target="bTojiUADneSwpfyPgZL4-16" edge="1">
          <mxGeometry relative="1" as="geometry" />
        </mxCell>
        <mxCell id="bTojiUADneSwpfyPgZL4-13" value="k8s" style="ellipse;whiteSpace=wrap;html=1;" parent="bI9L5rNSc7lEZbF2SyRt-1" vertex="1">
          <mxGeometry x="55" y="410" width="65" height="60" as="geometry" />
        </mxCell>
        <mxCell id="bTojiUADneSwpfyPgZL4-19" style="edgeStyle=orthogonalEdgeStyle;rounded=0;orthogonalLoop=1;jettySize=auto;html=1;entryX=0;entryY=0.5;entryDx=0;entryDy=0;" parent="bI9L5rNSc7lEZbF2SyRt-1" source="bTojiUADneSwpfyPgZL4-14" target="bTojiUADneSwpfyPgZL4-16" edge="1">
          <mxGeometry relative="1" as="geometry" />
        </mxCell>
        <mxCell id="bTojiUADneSwpfyPgZL4-14" value="k8s" style="ellipse;whiteSpace=wrap;html=1;" parent="bI9L5rNSc7lEZbF2SyRt-1" vertex="1">
          <mxGeometry x="55" y="480" width="65" height="60" as="geometry" />
        </mxCell>
        <mxCell id="bTojiUADneSwpfyPgZL4-18" style="edgeStyle=orthogonalEdgeStyle;rounded=0;orthogonalLoop=1;jettySize=auto;html=1;entryX=0;entryY=1;entryDx=0;entryDy=0;entryPerimeter=0;" parent="bI9L5rNSc7lEZbF2SyRt-1" source="bTojiUADneSwpfyPgZL4-15" target="bTojiUADneSwpfyPgZL4-16" edge="1">
          <mxGeometry relative="1" as="geometry" />
        </mxCell>
        <mxCell id="bTojiUADneSwpfyPgZL4-15" value="k8s" style="ellipse;whiteSpace=wrap;html=1;" parent="bI9L5rNSc7lEZbF2SyRt-1" vertex="1">
          <mxGeometry x="55" y="560" width="65" height="60" as="geometry" />
        </mxCell>
        <mxCell id="bTojiUADneSwpfyPgZL4-16" value="kafka&amp;nbsp; &amp;nbsp;&amp;nbsp;" style="triangle;whiteSpace=wrap;html=1;" parent="bI9L5rNSc7lEZbF2SyRt-1" vertex="1">
          <mxGeometry x="170" y="470" width="60" height="80" as="geometry" />
        </mxCell>
        <mxCell id="bTojiUADneSwpfyPgZL4-21" value="" style="edgeStyle=orthogonalEdgeStyle;rounded=0;orthogonalLoop=1;jettySize=auto;html=1;" parent="bI9L5rNSc7lEZbF2SyRt-1" source="bTojiUADneSwpfyPgZL4-20" target="bTojiUADneSwpfyPgZL4-16" edge="1">
          <mxGeometry relative="1" as="geometry" />
        </mxCell>
        <mxCell id="bTojiUADneSwpfyPgZL4-23" value="" style="edgeStyle=orthogonalEdgeStyle;rounded=0;orthogonalLoop=1;jettySize=auto;html=1;" parent="bI9L5rNSc7lEZbF2SyRt-1" source="bTojiUADneSwpfyPgZL4-20" target="bTojiUADneSwpfyPgZL4-22" edge="1">
          <mxGeometry relative="1" as="geometry" />
        </mxCell>
        <mxCell id="bTojiUADneSwpfyPgZL4-20" value="Flink" style="rhombus;whiteSpace=wrap;html=1;" parent="bI9L5rNSc7lEZbF2SyRt-1" vertex="1">
          <mxGeometry x="260" y="470" width="80" height="80" as="geometry" />
        </mxCell>
        <mxCell id="bTojiUADneSwpfyPgZL4-24" style="edgeStyle=orthogonalEdgeStyle;rounded=0;orthogonalLoop=1;jettySize=auto;html=1;entryX=0;entryY=0.5;entryDx=0;entryDy=0;" parent="bI9L5rNSc7lEZbF2SyRt-1" source="bTojiUADneSwpfyPgZL4-22" target="bTojiUADneSwpfyPgZL4-9" edge="1">
          <mxGeometry relative="1" as="geometry" />
        </mxCell>
        <mxCell id="bTojiUADneSwpfyPgZL4-38" style="edgeStyle=orthogonalEdgeStyle;rounded=0;orthogonalLoop=1;jettySize=auto;html=1;entryX=0;entryY=0.5;entryDx=0;entryDy=0;entryPerimeter=0;" parent="bI9L5rNSc7lEZbF2SyRt-1" source="bTojiUADneSwpfyPgZL4-22" target="bTojiUADneSwpfyPgZL4-10" edge="1">
          <mxGeometry relative="1" as="geometry">
            <Array as="points">
              <mxPoint x="400" y="625" />
            </Array>
          </mxGeometry>
        </mxCell>
        <mxCell id="bTojiUADneSwpfyPgZL4-22" value="DQ" style="rhombus;whiteSpace=wrap;html=1;" parent="bI9L5rNSc7lEZbF2SyRt-1" vertex="1">
          <mxGeometry x="360" y="470" width="80" height="80" as="geometry" />
        </mxCell>
        <mxCell id="bTojiUADneSwpfyPgZL4-28" value="RT data marts&amp;nbsp;" style="whiteSpace=wrap;html=1;" parent="bI9L5rNSc7lEZbF2SyRt-1" vertex="1">
          <mxGeometry x="390" y="370" width="120" height="60" as="geometry" />
        </mxCell>
        <mxCell id="bTojiUADneSwpfyPgZL4-33" value="" style="edgeStyle=orthogonalEdgeStyle;rounded=0;orthogonalLoop=1;jettySize=auto;html=1;" parent="bI9L5rNSc7lEZbF2SyRt-1" source="bTojiUADneSwpfyPgZL4-30" target="bTojiUADneSwpfyPgZL4-28" edge="1">
          <mxGeometry relative="1" as="geometry" />
        </mxCell>
        <mxCell id="bTojiUADneSwpfyPgZL4-30" value="&amp;nbsp; &amp;nbsp; &amp;nbsp;RT dashboards" style="shape=internalStorage;whiteSpace=wrap;html=1;backgroundOutline=1;" parent="bI9L5rNSc7lEZbF2SyRt-1" vertex="1">
          <mxGeometry x="390" y="270" width="120" height="60" as="geometry" />
        </mxCell>
        <mxCell id="bTojiUADneSwpfyPgZL4-40" value="" style="edgeStyle=orthogonalEdgeStyle;rounded=0;orthogonalLoop=1;jettySize=auto;html=1;" parent="bI9L5rNSc7lEZbF2SyRt-1" source="bTojiUADneSwpfyPgZL4-39" target="bTojiUADneSwpfyPgZL4-10" edge="1">
          <mxGeometry relative="1" as="geometry">
            <Array as="points">
              <mxPoint x="610" y="625" />
              <mxPoint x="610" y="625" />
            </Array>
          </mxGeometry>
        </mxCell>
        <mxCell id="bTojiUADneSwpfyPgZL4-39" value="DW DB" style="shape=cylinder3;whiteSpace=wrap;html=1;boundedLbl=1;backgroundOutline=1;size=15;" parent="bI9L5rNSc7lEZbF2SyRt-1" vertex="1">
          <mxGeometry x="620" y="580" width="60" height="80" as="geometry" />
        </mxCell>
        <mxCell id="bTojiUADneSwpfyPgZL4-43" value="" style="edgeStyle=orthogonalEdgeStyle;rounded=0;orthogonalLoop=1;jettySize=auto;html=1;" parent="bI9L5rNSc7lEZbF2SyRt-1" source="bTojiUADneSwpfyPgZL4-41" target="bTojiUADneSwpfyPgZL4-39" edge="1">
          <mxGeometry relative="1" as="geometry" />
        </mxCell>
        <mxCell id="bTojiUADneSwpfyPgZL4-41" value="&amp;nbsp; &amp;nbsp; &amp;nbsp;&lt;br&gt;Regular &lt;br&gt;dashboards" style="shape=internalStorage;whiteSpace=wrap;html=1;backgroundOutline=1;" parent="bI9L5rNSc7lEZbF2SyRt-1" vertex="1">
          <mxGeometry x="720" y="640" width="120" height="60" as="geometry" />
        </mxCell>
        <mxCell id="bTojiUADneSwpfyPgZL4-45" style="edgeStyle=orthogonalEdgeStyle;rounded=0;orthogonalLoop=1;jettySize=auto;html=1;entryX=1;entryY=0;entryDx=0;entryDy=27.5;entryPerimeter=0;" parent="bI9L5rNSc7lEZbF2SyRt-1" source="bTojiUADneSwpfyPgZL4-44" target="bTojiUADneSwpfyPgZL4-39" edge="1">
          <mxGeometry relative="1" as="geometry" />
        </mxCell>
        <mxCell id="bTojiUADneSwpfyPgZL4-44" value="OLAP CUBE" style="html=1;whiteSpace=wrap;shape=isoCube2;backgroundOutline=1;isoAngle=15;" parent="bI9L5rNSc7lEZbF2SyRt-1" vertex="1">
          <mxGeometry x="710" y="530" width="70" height="60" as="geometry" />
        </mxCell>
        <mxCell id="bTojiUADneSwpfyPgZL4-46" value="Data Platform&amp;nbsp;&lt;br&gt;- transport service&lt;br&gt;-storage service&amp;nbsp;&lt;br&gt;- compute service&lt;br&gt;- interface service&amp;nbsp;" style="text;strokeColor=none;fillColor=none;html=1;fontSize=24;fontStyle=1;verticalAlign=middle;align=center;" parent="bI9L5rNSc7lEZbF2SyRt-1" vertex="1">
          <mxGeometry x="720" y="50" width="100" height="40" as="geometry" />
        </mxCell>
        <mxCell id="bTojiUADneSwpfyPgZL4-48" value="Интерфейсы отдачи :&amp;nbsp;&lt;br&gt;- доступ к лейку напрямую&lt;br&gt;- кеширование в DW (реляционку)&amp;nbsp;&lt;br&gt;- отдача сатанистам батч&amp;nbsp;&lt;br&gt;- отдача сатанистам реал тайм&amp;nbsp;&lt;br&gt;- отдача сервисам (через s3 бакет? )&lt;br&gt;- отдача в time series БД&amp;nbsp;&lt;br&gt;- отдача в Графовые БД&lt;br&gt;- отдача через In-Memory&amp;nbsp;&lt;br&gt;- отдача через API (кеш слой)" style="text;html=1;align=center;verticalAlign=middle;resizable=0;points=[];autosize=1;strokeColor=none;fillColor=none;" parent="bI9L5rNSc7lEZbF2SyRt-1" vertex="1">
          <mxGeometry x="585" y="235" width="230" height="150" as="geometry" />
        </mxCell>
      </root>
    </mxGraphModel>
  </diagram>
  <diagram id="yJVAFhc6dew9Vdfpxj03" name="Page-13">
    <mxGraphModel dx="1476" dy="741" grid="1" gridSize="10" guides="1" tooltips="1" connect="1" arrows="1" fold="1" page="1" pageScale="1" pageWidth="1169" pageHeight="827" math="0" shadow="0">
      <root>
        <mxCell id="16ZdMm595siPwAhaxejk-0" />
        <mxCell id="16ZdMm595siPwAhaxejk-1" parent="16ZdMm595siPwAhaxejk-0" />
        <mxCell id="16ZdMm595siPwAhaxejk-3" value="data lake" style="ellipse;whiteSpace=wrap;html=1;" parent="16ZdMm595siPwAhaxejk-1" vertex="1">
          <mxGeometry x="140" y="230" width="80" height="80" as="geometry" />
        </mxCell>
        <mxCell id="16ZdMm595siPwAhaxejk-28" style="edgeStyle=orthogonalEdgeStyle;rounded=0;orthogonalLoop=1;jettySize=auto;html=1;entryX=1;entryY=0.5;entryDx=0;entryDy=0;" parent="16ZdMm595siPwAhaxejk-1" source="16ZdMm595siPwAhaxejk-4" target="16ZdMm595siPwAhaxejk-12" edge="1">
          <mxGeometry relative="1" as="geometry" />
        </mxCell>
        <mxCell id="16ZdMm595siPwAhaxejk-4" value="" style="ellipse;whiteSpace=wrap;html=1;" parent="16ZdMm595siPwAhaxejk-1" vertex="1">
          <mxGeometry x="650" y="350" width="80" height="60" as="geometry" />
        </mxCell>
        <mxCell id="16ZdMm595siPwAhaxejk-9" style="edgeStyle=orthogonalEdgeStyle;rounded=0;orthogonalLoop=1;jettySize=auto;html=1;entryX=0;entryY=0;entryDx=0;entryDy=0;" parent="16ZdMm595siPwAhaxejk-1" source="16ZdMm595siPwAhaxejk-5" target="16ZdMm595siPwAhaxejk-3" edge="1">
          <mxGeometry relative="1" as="geometry" />
        </mxCell>
        <mxCell id="16ZdMm595siPwAhaxejk-5" value="k8s" style="ellipse;whiteSpace=wrap;html=1;aspect=fixed;" parent="16ZdMm595siPwAhaxejk-1" vertex="1">
          <mxGeometry x="40" y="160" width="50" height="50" as="geometry" />
        </mxCell>
        <mxCell id="16ZdMm595siPwAhaxejk-8" value="" style="edgeStyle=orthogonalEdgeStyle;rounded=0;orthogonalLoop=1;jettySize=auto;html=1;" parent="16ZdMm595siPwAhaxejk-1" source="16ZdMm595siPwAhaxejk-6" target="16ZdMm595siPwAhaxejk-3" edge="1">
          <mxGeometry relative="1" as="geometry">
            <Array as="points">
              <mxPoint x="120" y="265" />
              <mxPoint x="120" y="265" />
            </Array>
          </mxGeometry>
        </mxCell>
        <mxCell id="16ZdMm595siPwAhaxejk-6" value="k8s" style="ellipse;whiteSpace=wrap;html=1;aspect=fixed;" parent="16ZdMm595siPwAhaxejk-1" vertex="1">
          <mxGeometry x="40" y="240" width="50" height="50" as="geometry" />
        </mxCell>
        <mxCell id="16ZdMm595siPwAhaxejk-10" style="edgeStyle=orthogonalEdgeStyle;rounded=0;orthogonalLoop=1;jettySize=auto;html=1;entryX=0;entryY=1;entryDx=0;entryDy=0;" parent="16ZdMm595siPwAhaxejk-1" source="16ZdMm595siPwAhaxejk-7" target="16ZdMm595siPwAhaxejk-3" edge="1">
          <mxGeometry relative="1" as="geometry" />
        </mxCell>
        <mxCell id="16ZdMm595siPwAhaxejk-7" value="k8s" style="ellipse;whiteSpace=wrap;html=1;aspect=fixed;" parent="16ZdMm595siPwAhaxejk-1" vertex="1">
          <mxGeometry x="40" y="320" width="50" height="50" as="geometry" />
        </mxCell>
        <mxCell id="16ZdMm595siPwAhaxejk-15" style="edgeStyle=orthogonalEdgeStyle;rounded=0;orthogonalLoop=1;jettySize=auto;html=1;entryX=0.625;entryY=0;entryDx=0;entryDy=0;entryPerimeter=0;" parent="16ZdMm595siPwAhaxejk-1" source="16ZdMm595siPwAhaxejk-11" target="16ZdMm595siPwAhaxejk-3" edge="1">
          <mxGeometry relative="1" as="geometry" />
        </mxCell>
        <mxCell id="16ZdMm595siPwAhaxejk-11" value="" style="ellipse;whiteSpace=wrap;html=1;" parent="16ZdMm595siPwAhaxejk-1" vertex="1">
          <mxGeometry x="260" y="130" width="80" height="60" as="geometry" />
        </mxCell>
        <mxCell id="16ZdMm595siPwAhaxejk-23" style="edgeStyle=orthogonalEdgeStyle;rounded=0;orthogonalLoop=1;jettySize=auto;html=1;entryX=1;entryY=1;entryDx=0;entryDy=0;" parent="16ZdMm595siPwAhaxejk-1" source="16ZdMm595siPwAhaxejk-12" target="16ZdMm595siPwAhaxejk-3" edge="1">
          <mxGeometry relative="1" as="geometry">
            <Array as="points">
              <mxPoint x="290" y="370" />
              <mxPoint x="290" y="320" />
              <mxPoint x="208" y="320" />
            </Array>
          </mxGeometry>
        </mxCell>
        <mxCell id="16ZdMm595siPwAhaxejk-12" value="" style="ellipse;whiteSpace=wrap;html=1;" parent="16ZdMm595siPwAhaxejk-1" vertex="1">
          <mxGeometry x="420" y="350" width="80" height="60" as="geometry" />
        </mxCell>
        <mxCell id="16ZdMm595siPwAhaxejk-18" style="edgeStyle=orthogonalEdgeStyle;rounded=0;orthogonalLoop=1;jettySize=auto;html=1;entryX=0.659;entryY=1.013;entryDx=0;entryDy=0;entryPerimeter=0;" parent="16ZdMm595siPwAhaxejk-1" source="16ZdMm595siPwAhaxejk-14" target="16ZdMm595siPwAhaxejk-3" edge="1">
          <mxGeometry relative="1" as="geometry" />
        </mxCell>
        <mxCell id="16ZdMm595siPwAhaxejk-29" style="edgeStyle=orthogonalEdgeStyle;rounded=0;orthogonalLoop=1;jettySize=auto;html=1;entryX=1;entryY=0.5;entryDx=0;entryDy=0;" parent="16ZdMm595siPwAhaxejk-1" source="16ZdMm595siPwAhaxejk-14" target="16ZdMm595siPwAhaxejk-25" edge="1">
          <mxGeometry relative="1" as="geometry">
            <mxPoint x="790" y="180" as="targetPoint" />
            <Array as="points">
              <mxPoint x="800" y="480" />
              <mxPoint x="800" y="180" />
            </Array>
          </mxGeometry>
        </mxCell>
        <mxCell id="16ZdMm595siPwAhaxejk-14" value="" style="ellipse;whiteSpace=wrap;html=1;" parent="16ZdMm595siPwAhaxejk-1" vertex="1">
          <mxGeometry x="250" y="450" width="80" height="60" as="geometry" />
        </mxCell>
        <mxCell id="16ZdMm595siPwAhaxejk-16" value="&lt;span style=&quot;color: rgb(23 , 43 , 77) ; font-family: , &amp;#34;system-ui&amp;#34; , &amp;#34;segoe ui&amp;#34; , &amp;#34;roboto&amp;#34; , &amp;#34;noto sans&amp;#34; , &amp;#34;ubuntu&amp;#34; , &amp;#34;droid sans&amp;#34; , &amp;#34;helvetica neue&amp;#34; , sans-serif ; font-size: 16px ; letter-spacing: -0.08px ; text-align: left ; background-color: rgb(255 , 255 , 255)&quot;&gt;data analytics cluster&lt;/span&gt;" style="text;html=1;align=center;verticalAlign=middle;resizable=0;points=[];autosize=1;strokeColor=none;fillColor=none;" parent="16ZdMm595siPwAhaxejk-1" vertex="1">
          <mxGeometry x="240" y="100" width="160" height="20" as="geometry" />
        </mxCell>
        <mxCell id="16ZdMm595siPwAhaxejk-17" value="&lt;span style=&quot;color: rgb(23 , 43 , 77) ; font-family: , &amp;#34;system-ui&amp;#34; , &amp;#34;segoe ui&amp;#34; , &amp;#34;roboto&amp;#34; , &amp;#34;noto sans&amp;#34; , &amp;#34;ubuntu&amp;#34; , &amp;#34;droid sans&amp;#34; , &amp;#34;helvetica neue&amp;#34; , sans-serif ; font-size: 16px ; letter-spacing: -0.08px ; text-align: left ; background-color: rgb(255 , 255 , 255)&quot;&gt;data research lab cluster&lt;/span&gt;" style="text;html=1;align=center;verticalAlign=middle;resizable=0;points=[];autosize=1;strokeColor=none;fillColor=none;" parent="16ZdMm595siPwAhaxejk-1" vertex="1">
          <mxGeometry x="190" y="520" width="190" height="20" as="geometry" />
        </mxCell>
        <mxCell id="16ZdMm595siPwAhaxejk-19" value="&lt;span style=&quot;color: rgb(23 , 43 , 77) ; font-family: , &amp;#34;system-ui&amp;#34; , &amp;#34;segoe ui&amp;#34; , &amp;#34;roboto&amp;#34; , &amp;#34;noto sans&amp;#34; , &amp;#34;ubuntu&amp;#34; , &amp;#34;droid sans&amp;#34; , &amp;#34;helvetica neue&amp;#34; , sans-serif ; font-size: 16px ; letter-spacing: -0.08px ; text-align: left ; background-color: rgb(255 , 255 , 255)&quot;&gt;data operational cluster &lt;/span&gt;" style="text;html=1;align=center;verticalAlign=middle;resizable=0;points=[];autosize=1;strokeColor=none;fillColor=none;" parent="16ZdMm595siPwAhaxejk-1" vertex="1">
          <mxGeometry x="380" y="330" width="180" height="20" as="geometry" />
        </mxCell>
        <mxCell id="16ZdMm595siPwAhaxejk-22" style="edgeStyle=orthogonalEdgeStyle;rounded=0;orthogonalLoop=1;jettySize=auto;html=1;entryX=1;entryY=0;entryDx=0;entryDy=0;" parent="16ZdMm595siPwAhaxejk-1" source="16ZdMm595siPwAhaxejk-20" target="16ZdMm595siPwAhaxejk-3" edge="1">
          <mxGeometry relative="1" as="geometry" />
        </mxCell>
        <mxCell id="16ZdMm595siPwAhaxejk-20" value="" style="ellipse;whiteSpace=wrap;html=1;" parent="16ZdMm595siPwAhaxejk-1" vertex="1">
          <mxGeometry x="400" y="200" width="80" height="60" as="geometry" />
        </mxCell>
        <mxCell id="16ZdMm595siPwAhaxejk-21" value="&lt;span style=&quot;color: rgb(23 , 43 , 77) ; font-family: , &amp;#34;system-ui&amp;#34; , &amp;#34;segoe ui&amp;#34; , &amp;#34;roboto&amp;#34; , &amp;#34;noto sans&amp;#34; , &amp;#34;ubuntu&amp;#34; , &amp;#34;droid sans&amp;#34; , &amp;#34;helvetica neue&amp;#34; , sans-serif ; font-size: 16px ; letter-spacing: -0.08px ; text-align: left ; background-color: rgb(255 , 255 , 255)&quot;&gt;ML&amp;nbsp; operational cluster&lt;/span&gt;" style="text;html=1;align=center;verticalAlign=middle;resizable=0;points=[];autosize=1;strokeColor=none;fillColor=none;" parent="16ZdMm595siPwAhaxejk-1" vertex="1">
          <mxGeometry x="380" y="175" width="180" height="20" as="geometry" />
        </mxCell>
        <mxCell id="16ZdMm595siPwAhaxejk-24" value="&lt;span style=&quot;color: rgb(23 , 43 , 77) ; font-family: , &amp;#34;system-ui&amp;#34; , &amp;#34;segoe ui&amp;#34; , &amp;#34;roboto&amp;#34; , &amp;#34;noto sans&amp;#34; , &amp;#34;ubuntu&amp;#34; , &amp;#34;droid sans&amp;#34; , &amp;#34;helvetica neue&amp;#34; , sans-serif ; font-size: 16px ; letter-spacing: -0.08px ; text-align: left ; background-color: rgb(255 , 255 , 255)&quot;&gt;de dev cluster&lt;/span&gt;" style="text;html=1;align=center;verticalAlign=middle;resizable=0;points=[];autosize=1;strokeColor=none;fillColor=none;" parent="16ZdMm595siPwAhaxejk-1" vertex="1">
          <mxGeometry x="635" y="320" width="110" height="20" as="geometry" />
        </mxCell>
        <mxCell id="16ZdMm595siPwAhaxejk-27" style="edgeStyle=orthogonalEdgeStyle;rounded=0;orthogonalLoop=1;jettySize=auto;html=1;entryX=1;entryY=0.5;entryDx=0;entryDy=0;" parent="16ZdMm595siPwAhaxejk-1" source="16ZdMm595siPwAhaxejk-25" target="16ZdMm595siPwAhaxejk-20" edge="1">
          <mxGeometry relative="1" as="geometry" />
        </mxCell>
        <mxCell id="16ZdMm595siPwAhaxejk-25" value="" style="ellipse;whiteSpace=wrap;html=1;" parent="16ZdMm595siPwAhaxejk-1" vertex="1">
          <mxGeometry x="650" y="150" width="80" height="60" as="geometry" />
        </mxCell>
        <mxCell id="16ZdMm595siPwAhaxejk-26" value="&lt;span style=&quot;color: rgb(23 , 43 , 77) ; font-family: , &amp;#34;system-ui&amp;#34; , &amp;#34;segoe ui&amp;#34; , &amp;#34;roboto&amp;#34; , &amp;#34;noto sans&amp;#34; , &amp;#34;ubuntu&amp;#34; , &amp;#34;droid sans&amp;#34; , &amp;#34;helvetica neue&amp;#34; , sans-serif ; font-size: 16px ; letter-spacing: -0.08px ; text-align: left ; background-color: rgb(255 , 255 , 255)&quot;&gt;DS/ML dev cluster&lt;/span&gt;" style="text;html=1;align=center;verticalAlign=middle;resizable=0;points=[];autosize=1;strokeColor=none;fillColor=none;" parent="16ZdMm595siPwAhaxejk-1" vertex="1">
          <mxGeometry x="620" y="120" width="140" height="20" as="geometry" />
        </mxCell>
      </root>
    </mxGraphModel>
  </diagram>
</mxfile>
